<svg width="355" height="81" viewBox="0 0 355 81" fill="none" xmlns="http://www.w3.org/2000/svg">
<mask id="path-1-outside-1_33_191" maskUnits="userSpaceOnUse" x="0" y="0" width="355" height="81" fill="black">
<rect fill="white" width="355" height="81"/>
<path d="M1.99141 30.8C2.45807 24.6667 4.52474 19.4 8.19141 15C11.8581 10.5333 16.7247 7.13333 22.7914 4.79999C28.9247 2.4 35.7914 1.2 43.3914 1.2C50.6581 1.2 56.9914 2.3 62.3914 4.5C67.7914 6.63333 71.9914 9.63333 74.9914 13.5C77.9914 17.3 79.4914 21.7333 79.4914 26.8C79.4914 30.7333 78.3581 34.4 76.0914 37.8C73.8247 41.2 70.3581 44.4667 65.6914 47.6C61.0247 50.7333 55.0247 53.8333 47.6914 56.9L29.9914 64.3L29.7914 58H81.3914V78H4.19141V60.4L36.5914 43.1C41.2581 40.6333 44.8247 38.6 47.2914 37C49.7581 35.4 51.4581 33.9667 52.3914 32.7C53.3914 31.3667 53.8914 29.9333 53.8914 28.4C53.8914 26.7333 53.4247 25.3333 52.4914 24.2C51.6247 23.0667 50.3247 22.2 48.5914 21.6C46.8581 20.9333 44.7914 20.6 42.3914 20.6C39.0581 20.6 36.3247 21.0667 34.1914 22C32.1247 22.9333 30.5581 24.1667 29.4914 25.7C28.4247 27.2333 27.7914 28.9333 27.5914 30.8H1.99141ZM133.015 79.8C124.282 79.8 116.615 78.1667 110.015 74.9C103.482 71.6333 98.3815 67.0667 94.7148 61.2C91.1148 55.2667 89.3148 48.3667 89.3148 40.5C89.3148 32.6333 91.1148 25.7667 94.7148 19.9C98.3815 13.9667 103.482 9.36666 110.015 6.1C116.615 2.83333 124.282 1.2 133.015 1.2C141.748 1.2 149.382 2.83333 155.915 6.1C162.515 9.36666 167.615 13.9667 171.215 19.9C174.882 25.7667 176.715 32.6333 176.715 40.5C176.715 48.3667 174.882 55.2667 171.215 61.2C167.615 67.0667 162.515 71.6333 155.915 74.9C149.382 78.1667 141.748 79.8 133.015 79.8ZM133.115 59C138.782 59 143.182 57.4 146.315 54.2C149.515 50.9333 151.115 46.3667 151.115 40.5C151.115 34.5667 149.515 30 146.315 26.8C143.182 23.6 138.748 22 133.015 22C127.348 22 122.915 23.6 119.715 26.8C116.515 30 114.915 34.5333 114.915 40.4C114.915 46.3333 116.515 50.9333 119.715 54.2C122.915 57.4 127.382 59 133.115 59ZM183.144 30.8C183.61 24.6667 185.677 19.4 189.344 15C193.01 10.5333 197.877 7.13333 203.944 4.79999C210.077 2.4 216.944 1.2 224.544 1.2C231.81 1.2 238.144 2.3 243.544 4.5C248.944 6.63333 253.144 9.63333 256.144 13.5C259.144 17.3 260.644 21.7333 260.644 26.8C260.644 30.7333 259.51 34.4 257.244 37.8C254.977 41.2 251.51 44.4667 246.844 47.6C242.177 50.7333 236.177 53.8333 228.844 56.9L211.144 64.3L210.944 58H262.544V78H185.344V60.4L217.744 43.1C222.41 40.6333 225.977 38.6 228.444 37C230.91 35.4 232.61 33.9667 233.544 32.7C234.544 31.3667 235.044 29.9333 235.044 28.4C235.044 26.7333 234.577 25.3333 233.644 24.2C232.777 23.0667 231.477 22.2 229.744 21.6C228.01 20.9333 225.944 20.6 223.544 20.6C220.21 20.6 217.477 21.0667 215.344 22C213.277 22.9333 211.71 24.1667 210.644 25.7C209.577 27.2333 208.944 28.9333 208.744 30.8H183.144ZM342.367 2.99999V78H316.967V14.5H323.867L287.567 54.4V46.7H353.167V65.2H269.367V47.2L309.867 2.99999H342.367Z"/>
</mask>
<path d="M1.99141 30.8C2.45807 24.6667 4.52474 19.4 8.19141 15C11.8581 10.5333 16.7247 7.13333 22.7914 4.79999C28.9247 2.4 35.7914 1.2 43.3914 1.2C50.6581 1.2 56.9914 2.3 62.3914 4.5C67.7914 6.63333 71.9914 9.63333 74.9914 13.5C77.9914 17.3 79.4914 21.7333 79.4914 26.8C79.4914 30.7333 78.3581 34.4 76.0914 37.8C73.8247 41.2 70.3581 44.4667 65.6914 47.6C61.0247 50.7333 55.0247 53.8333 47.6914 56.9L29.9914 64.3L29.7914 58H81.3914V78H4.19141V60.4L36.5914 43.1C41.2581 40.6333 44.8247 38.6 47.2914 37C49.7581 35.4 51.4581 33.9667 52.3914 32.7C53.3914 31.3667 53.8914 29.9333 53.8914 28.4C53.8914 26.7333 53.4247 25.3333 52.4914 24.2C51.6247 23.0667 50.3247 22.2 48.5914 21.6C46.8581 20.9333 44.7914 20.6 42.3914 20.6C39.0581 20.6 36.3247 21.0667 34.1914 22C32.1247 22.9333 30.5581 24.1667 29.4914 25.7C28.4247 27.2333 27.7914 28.9333 27.5914 30.8H1.99141ZM133.015 79.8C124.282 79.8 116.615 78.1667 110.015 74.9C103.482 71.6333 98.3815 67.0667 94.7148 61.2C91.1148 55.2667 89.3148 48.3667 89.3148 40.5C89.3148 32.6333 91.1148 25.7667 94.7148 19.9C98.3815 13.9667 103.482 9.36666 110.015 6.1C116.615 2.83333 124.282 1.2 133.015 1.2C141.748 1.2 149.382 2.83333 155.915 6.1C162.515 9.36666 167.615 13.9667 171.215 19.9C174.882 25.7667 176.715 32.6333 176.715 40.5C176.715 48.3667 174.882 55.2667 171.215 61.2C167.615 67.0667 162.515 71.6333 155.915 74.9C149.382 78.1667 141.748 79.8 133.015 79.8ZM133.115 59C138.782 59 143.182 57.4 146.315 54.2C149.515 50.9333 151.115 46.3667 151.115 40.5C151.115 34.5667 149.515 30 146.315 26.8C143.182 23.6 138.748 22 133.015 22C127.348 22 122.915 23.6 119.715 26.8C116.515 30 114.915 34.5333 114.915 40.4C114.915 46.3333 116.515 50.9333 119.715 54.2C122.915 57.4 127.382 59 133.115 59ZM183.144 30.8C183.61 24.6667 185.677 19.4 189.344 15C193.01 10.5333 197.877 7.13333 203.944 4.79999C210.077 2.4 216.944 1.2 224.544 1.2C231.81 1.2 238.144 2.3 243.544 4.5C248.944 6.63333 253.144 9.63333 256.144 13.5C259.144 17.3 260.644 21.7333 260.644 26.8C260.644 30.7333 259.51 34.4 257.244 37.8C254.977 41.2 251.51 44.4667 246.844 47.6C242.177 50.7333 236.177 53.8333 228.844 56.9L211.144 64.3L210.944 58H262.544V78H185.344V60.4L217.744 43.1C222.41 40.6333 225.977 38.6 228.444 37C230.91 35.4 232.61 33.9667 233.544 32.7C234.544 31.3667 235.044 29.9333 235.044 28.4C235.044 26.7333 234.577 25.3333 233.644 24.2C232.777 23.0667 231.477 22.2 229.744 21.6C228.01 20.9333 225.944 20.6 223.544 20.6C220.21 20.6 217.477 21.0667 215.344 22C213.277 22.9333 211.71 24.1667 210.644 25.7C209.577 27.2333 208.944 28.9333 208.744 30.8H183.144ZM342.367 2.99999V78H316.967V14.5H323.867L287.567 54.4V46.7H353.167V65.2H269.367V47.2L309.867 2.99999H342.367Z" fill="url(#paint0_linear_33_191)" fill-opacity="0.2"/>
<path d="M1.99141 30.8L0.994288 30.7241L0.912429 31.8H1.99141V30.8ZM8.19141 15L8.95965 15.6402L8.96433 15.6345L8.19141 15ZM22.7914 4.8L23.1504 5.73336L23.1558 5.73124L22.7914 4.8ZM62.3914 4.5L62.0141 5.42614L62.024 5.43005L62.3914 4.5ZM74.9914 13.5L74.2013 14.113L74.2065 14.1196L74.9914 13.5ZM76.0914 37.8L76.9235 38.3547L76.0914 37.8ZM65.6914 47.6L65.134 46.7698L65.6914 47.6ZM47.6914 56.9L48.0771 57.8226L48.0772 57.8226L47.6914 56.9ZM29.9914 64.3L28.9919 64.3317L29.038 65.7825L30.3771 65.2226L29.9914 64.3ZM29.7914 58V57H28.7592L28.7919 58.0317L29.7914 58ZM81.3914 58H82.3914V57H81.3914V58ZM81.3914 78V79H82.3914V78H81.3914ZM4.19141 78H3.19141V79H4.19141V78ZM4.19141 60.4L3.72039 59.5179L3.19141 59.8003V60.4H4.19141ZM36.5914 43.1L36.1241 42.2159L36.1204 42.2179L36.5914 43.1ZM47.2914 37L46.7472 36.161L47.2914 37ZM52.3914 32.7L51.5914 32.1L51.5863 32.1068L52.3914 32.7ZM52.4914 24.2L51.6971 24.8074L51.708 24.8218L51.7195 24.8357L52.4914 24.2ZM48.5914 21.6L48.2324 22.5333L48.2483 22.5394L48.2643 22.545L48.5914 21.6ZM34.1914 22L33.7906 21.0838L33.7798 21.0886L34.1914 22ZM27.5914 30.8V31.8H28.49L28.5857 30.9065L27.5914 30.8ZM2.98852 30.8759C3.44065 24.9337 5.4361 19.8684 8.95963 15.6402L7.42319 14.3598C3.61338 18.9316 1.4755 24.3997 0.994288 30.7241L2.98852 30.8759ZM8.96433 15.6345C12.508 11.3176 17.2247 8.01245 23.1504 5.73334L22.4324 3.86665C16.2248 6.25421 11.2081 9.74904 7.41848 14.3655L8.96433 15.6345ZM23.1558 5.73124C29.1566 3.38311 35.8971 2.2 43.3914 2.2V0.199999C35.6857 0.199999 28.6929 1.41689 22.427 3.86875L23.1558 5.73124ZM43.3914 2.2C50.5595 2.2 56.7594 3.2853 62.0141 5.42609L62.7687 3.57391C57.2234 1.3147 50.7567 0.199999 43.3914 0.199999V2.2ZM62.024 5.43005C67.2885 7.50986 71.3302 10.4124 74.2013 14.113L75.7815 12.887C72.6526 8.85426 68.2943 5.7568 62.7588 3.56995L62.024 5.43005ZM74.2065 14.1196C77.0604 17.7345 78.4914 21.9469 78.4914 26.8H80.4914C80.4914 21.5197 78.9224 16.8655 75.7763 12.8804L74.2065 14.1196ZM78.4914 26.8C78.4914 30.5279 77.421 34.0028 75.2594 37.2453L76.9235 38.3547C79.2951 34.7972 80.4914 30.9387 80.4914 26.8H78.4914ZM75.2594 37.2453C73.0871 40.5037 69.7301 43.6838 65.134 46.7698L66.2488 48.4302C70.986 45.2495 74.5624 41.8963 76.9235 38.3547L75.2594 37.2453ZM65.134 46.7698C60.5385 49.8553 54.6014 52.9265 47.3056 55.9774L48.0772 57.8226C55.4481 54.7402 61.511 51.6113 66.2488 48.4302L65.134 46.7698ZM47.3057 55.9774L29.6057 63.3774L30.3771 65.2226L48.0771 57.8226L47.3057 55.9774ZM30.9909 64.2683L30.7909 57.9683L28.7919 58.0317L28.9919 64.3317L30.9909 64.2683ZM29.7914 59H81.3914V57H29.7914V59ZM80.3914 58V78H82.3914V58H80.3914ZM81.3914 77H4.19141V79H81.3914V77ZM5.19141 78V60.4H3.19141V78H5.19141ZM4.66242 61.2821L37.0624 43.9821L36.1204 42.2179L3.72039 59.5179L4.66242 61.2821ZM37.0587 43.9841C41.7346 41.5126 45.3318 39.4631 47.8356 37.839L46.7472 36.161C44.3177 37.7369 40.7816 39.7541 36.1241 42.2159L37.0587 43.9841ZM47.8356 37.839C50.3312 36.2202 52.1541 34.7078 53.1965 33.2932L51.5863 32.1068C50.762 33.2255 49.1849 34.5798 46.7472 36.161L47.8356 37.839ZM53.1914 33.3C54.3093 31.8095 54.8914 30.1688 54.8914 28.4H52.8914C52.8914 29.6978 52.4735 30.9238 51.5914 32.1L53.1914 33.3ZM54.8914 28.4C54.8914 26.5346 54.3639 24.9007 53.2633 23.5643L51.7195 24.8357C52.4856 25.7659 52.8914 26.9321 52.8914 28.4H54.8914ZM53.2858 23.5925C52.2701 22.2643 50.7848 21.301 48.9185 20.655L48.2643 22.545C49.8647 23.099 50.9794 23.869 51.6971 24.8074L53.2858 23.5925ZM48.9504 20.6667C47.0744 19.9451 44.88 19.6 42.3914 19.6V21.6C44.7028 21.6 46.6417 21.9215 48.2324 22.5333L48.9504 20.6667ZM42.3914 19.6C38.9751 19.6 36.0925 20.0768 33.7906 21.0838L34.5922 22.9162C36.557 22.0566 39.141 21.6 42.3914 21.6V19.6ZM33.7798 21.0886C31.5837 22.0804 29.8604 23.4184 28.6705 25.1289L30.3123 26.2711C31.2557 24.9149 32.6657 23.7863 34.603 22.9114L33.7798 21.0886ZM28.6705 25.1289C27.5074 26.8008 26.8149 28.6607 26.5971 30.6935L28.5857 30.9065C28.7679 29.2059 29.342 27.6658 30.3123 26.2711L28.6705 25.1289ZM27.5914 29.8H1.99141V31.8H27.5914V29.8ZM110.015 74.9L109.568 75.7944L109.571 75.7962L110.015 74.9ZM94.7148 61.2L93.8598 61.7188L93.8668 61.73L94.7148 61.2ZM94.7148 19.9L93.8642 19.3743L93.8625 19.377L94.7148 19.9ZM110.015 6.09999L109.571 5.20376L109.568 5.20557L110.015 6.09999ZM155.915 6.09999L155.468 6.99443L155.471 6.99623L155.915 6.09999ZM171.215 19.9L170.36 20.4188L170.367 20.43L171.215 19.9ZM171.215 61.2L170.364 60.6743L170.363 60.677L171.215 61.2ZM155.915 74.9L155.471 74.0038L155.468 74.0056L155.915 74.9ZM146.315 54.2L145.6 53.5002L145.6 53.5004L146.315 54.2ZM146.315 26.8L145.6 27.4997L145.608 27.5071L146.315 26.8ZM119.715 26.8L119.008 26.0929L119.715 26.8ZM119.715 54.2L119 54.8998L119.008 54.9071L119.715 54.2ZM133.015 78.8C124.407 78.8 116.897 77.1906 110.458 74.0038L109.571 75.7962C116.333 79.1427 124.156 80.8 133.015 80.8V78.8ZM110.462 74.0056C104.084 70.8164 99.1265 66.3718 95.5628 60.67L93.8668 61.73C97.6366 67.7616 102.879 72.4503 109.568 75.7944L110.462 74.0056ZM95.5698 60.6813C92.0768 54.9244 90.3148 48.2087 90.3148 40.5H88.3148C88.3148 48.5246 90.1528 55.6089 93.8599 61.7187L95.5698 60.6813ZM90.3148 40.5C90.3148 32.791 92.0769 26.1108 95.5672 20.423L93.8625 19.377C90.1528 25.4225 88.3148 32.4757 88.3148 40.5H90.3148ZM95.5655 20.4257C99.1298 14.658 104.087 10.1821 110.462 6.99442L109.568 5.20557C102.876 8.55119 97.6332 13.2753 93.8642 19.3743L95.5655 20.4257ZM110.458 6.99623C116.897 3.80939 124.407 2.2 133.015 2.2V0.199999C124.156 0.199999 116.333 1.85727 109.571 5.20377L110.458 6.99623ZM133.015 2.2C141.623 2.2 149.098 3.80949 155.468 6.99442L156.362 5.20557C149.665 1.85717 141.873 0.199999 133.015 0.199999V2.2ZM155.471 6.99623C161.912 10.1841 166.865 14.6578 170.36 20.4187L172.07 19.3813C168.365 13.2755 163.118 8.54927 156.358 5.20377L155.471 6.99623ZM170.367 20.43C173.921 26.1168 175.715 32.7944 175.715 40.5H177.715C177.715 32.4722 175.842 25.4165 172.063 19.37L170.367 20.43ZM175.715 40.5C175.715 48.2053 173.921 54.9185 170.364 60.6743L172.066 61.7257C175.842 55.6149 177.715 48.528 177.715 40.5H175.715ZM170.363 60.677C166.868 66.372 161.915 70.8145 155.471 74.0038L156.358 75.7962C163.115 72.4522 168.362 67.7614 172.067 61.723L170.363 60.677ZM155.468 74.0056C149.098 77.1905 141.623 78.8 133.015 78.8V80.8C141.873 80.8 149.665 79.1428 156.362 75.7944L155.468 74.0056ZM133.115 60C138.975 60 143.661 58.3396 147.029 54.8996L145.6 53.5004C142.702 56.4604 138.588 58 133.115 58V60ZM147.029 54.8998C150.46 51.3974 152.115 46.551 152.115 40.5H150.115C150.115 46.1823 148.57 50.4692 145.6 53.5002L147.029 54.8998ZM152.115 40.5C152.115 34.3872 150.462 29.5334 147.022 26.0929L145.608 27.5071C148.567 30.4666 150.115 34.7461 150.115 40.5H152.115ZM147.029 26.1004C143.659 22.6582 138.938 21 133.015 21V23C138.559 23 142.704 24.5418 145.6 27.4996L147.029 26.1004ZM133.015 21C127.154 21 122.44 22.6607 119.008 26.0929L120.422 27.5071C123.39 24.5393 127.543 23 133.015 23V21ZM119.008 26.0929C115.569 29.5314 113.915 34.3501 113.915 40.4H115.915C115.915 34.7165 117.46 30.4686 120.422 27.5071L119.008 26.0929ZM113.915 40.4C113.915 46.514 115.568 51.3954 119 54.8998L120.429 53.5002C117.462 50.4713 115.915 46.1526 115.915 40.4H113.915ZM119.008 54.9071C122.442 58.3414 127.191 60 133.115 60V58C127.572 58 123.388 56.4586 120.422 53.4929L119.008 54.9071ZM183.144 30.8L182.147 30.7241L182.065 31.8H183.144V30.8ZM189.344 15L190.112 15.6402L190.117 15.6345L189.344 15ZM203.944 4.8L204.303 5.73336L204.308 5.73124L203.944 4.8ZM243.544 4.5L243.166 5.42614L243.176 5.43005L243.544 4.5ZM256.144 13.5L255.354 14.113L255.359 14.1196L256.144 13.5ZM257.244 37.8L258.076 38.3547L257.244 37.8ZM246.844 47.6L246.286 46.7698L246.844 47.6ZM228.844 56.9L229.229 57.8226L229.23 57.8226L228.844 56.9ZM211.144 64.3L210.144 64.3317L210.19 65.7825L211.529 65.2226L211.144 64.3ZM210.944 58V57H209.911L209.944 58.0317L210.944 58ZM262.544 58H263.544V57H262.544V58ZM262.544 78V79H263.544V78H262.544ZM185.344 78H184.344V79H185.344V78ZM185.344 60.4L184.873 59.5179L184.344 59.8003V60.4H185.344ZM217.744 43.1L217.276 42.2159L217.273 42.2179L217.744 43.1ZM228.444 37L227.9 36.161L228.444 37ZM233.544 32.7L232.744 32.1L232.739 32.1068L233.544 32.7ZM233.644 24.2L232.849 24.8074L232.86 24.8218L232.872 24.8357L233.644 24.2ZM229.744 21.6L229.385 22.5333L229.401 22.5394L229.417 22.545L229.744 21.6ZM215.344 22L214.943 21.0838L214.932 21.0886L215.344 22ZM208.744 30.8V31.8H209.642L209.738 30.9065L208.744 30.8ZM184.141 30.8759C184.593 24.9337 186.588 19.8684 190.112 15.6402L188.576 14.3598C184.766 18.9316 182.628 24.3997 182.147 30.7241L184.141 30.8759ZM190.117 15.6345C193.66 11.3176 198.377 8.01245 204.303 5.73334L203.585 3.86665C197.377 6.25421 192.36 9.74904 188.571 14.3655L190.117 15.6345ZM204.308 5.73124C210.309 3.38311 217.049 2.2 224.544 2.2V0.199999C216.838 0.199999 209.845 1.41689 203.579 3.86875L204.308 5.73124ZM224.544 2.2C231.712 2.2 237.912 3.2853 243.166 5.42609L243.921 3.57391C238.376 1.3147 231.909 0.199999 224.544 0.199999V2.2ZM243.176 5.43005C248.441 7.50986 252.483 10.4124 255.354 14.113L256.934 12.887C253.805 8.85426 249.447 5.7568 243.911 3.56995L243.176 5.43005ZM255.359 14.1196C258.213 17.7345 259.644 21.9469 259.644 26.8H261.644C261.644 21.5197 260.075 16.8655 256.929 12.8804L255.359 14.1196ZM259.644 26.8C259.644 30.5279 258.573 34.0028 256.412 37.2453L258.076 38.3547C260.447 34.7972 261.644 30.9387 261.644 26.8H259.644ZM256.412 37.2453C254.239 40.5037 250.882 43.6838 246.286 46.7698L247.401 48.4302C252.138 45.2495 255.715 41.8963 258.076 38.3547L256.412 37.2453ZM246.286 46.7698C241.691 49.8553 235.754 52.9265 228.458 55.9774L229.23 57.8226C236.6 54.7402 242.663 51.6113 247.401 48.4302L246.286 46.7698ZM228.458 55.9774L210.758 63.3774L211.529 65.2226L229.229 57.8226L228.458 55.9774ZM212.143 64.2683L211.943 57.9683L209.944 58.0317L210.144 64.3317L212.143 64.2683ZM210.944 59H262.544V57H210.944V59ZM261.544 58V78H263.544V58H261.544ZM262.544 77H185.344V79H262.544V77ZM186.344 78V60.4H184.344V78H186.344ZM185.815 61.2821L218.215 43.9821L217.273 42.2179L184.873 59.5179L185.815 61.2821ZM218.211 43.9841C222.887 41.5126 226.484 39.4631 228.988 37.839L227.9 36.161C225.47 37.7369 221.934 39.7541 217.276 42.2159L218.211 43.9841ZM228.988 37.839C231.484 36.2202 233.306 34.7078 234.349 33.2932L232.739 32.1068C231.914 33.2255 230.337 34.5798 227.9 36.161L228.988 37.839ZM234.344 33.3C235.462 31.8095 236.044 30.1688 236.044 28.4H234.044C234.044 29.6978 233.626 30.9238 232.744 32.1L234.344 33.3ZM236.044 28.4C236.044 26.5346 235.516 24.9007 234.416 23.5643L232.872 24.8357C233.638 25.7659 234.044 26.9321 234.044 28.4H236.044ZM234.438 23.5925C233.422 22.2643 231.937 21.301 230.071 20.655L229.417 22.545C231.017 23.099 232.132 23.869 232.849 24.8074L234.438 23.5925ZM230.103 20.6667C228.227 19.9451 226.032 19.6 223.544 19.6V21.6C225.855 21.6 227.794 21.9215 229.385 22.5333L230.103 20.6667ZM223.544 19.6C220.127 19.6 217.245 20.0768 214.943 21.0838L215.745 22.9162C217.709 22.0566 220.293 21.6 223.544 21.6V19.6ZM214.932 21.0886C212.736 22.0804 211.013 23.4184 209.823 25.1289L211.465 26.2711C212.408 24.9149 213.818 23.7863 215.755 22.9114L214.932 21.0886ZM209.823 25.1289C208.66 26.8008 207.967 28.6607 207.749 30.6935L209.738 30.9065C209.92 29.2059 210.494 27.6658 211.465 26.2711L209.823 25.1289ZM208.744 29.8H183.144V31.8H208.744V29.8ZM342.367 2.99999H343.367V1.99999H342.367V2.99999ZM342.367 78V79H343.367V78H342.367ZM316.967 78H315.967V79H316.967V78ZM316.967 14.5V13.5H315.967V14.5H316.967ZM323.867 14.5L324.607 15.1729L326.129 13.5H323.867V14.5ZM287.567 54.4H286.567V56.9852L288.307 55.0729L287.567 54.4ZM287.567 46.7V45.7H286.567V46.7H287.567ZM353.167 46.7H354.167V45.7H353.167V46.7ZM353.167 65.2V66.2H354.167V65.2H353.167ZM269.367 65.2H268.367V66.2H269.367V65.2ZM269.367 47.2L268.63 46.5244L268.367 46.8111V47.2H269.367ZM309.867 2.99999V1.99999H309.427L309.13 2.32442L309.867 2.99999ZM341.367 2.99999V78H343.367V2.99999H341.367ZM342.367 77H316.967V79H342.367V77ZM317.967 78V14.5H315.967V78H317.967ZM316.967 15.5H323.867V13.5H316.967V15.5ZM323.128 13.827L286.828 53.7271L288.307 55.0729L324.607 15.1729L323.128 13.827ZM288.567 54.4V46.7H286.567V54.4H288.567ZM287.567 47.7H353.167V45.7H287.567V47.7ZM352.167 46.7V65.2H354.167V46.7H352.167ZM353.167 64.2H269.367V66.2H353.167V64.2ZM270.367 65.2V47.2H268.367V65.2H270.367ZM270.104 47.8756L310.604 3.67557L309.13 2.32442L268.63 46.5244L270.104 47.8756ZM309.867 3.99999H342.367V1.99999H309.867V3.99999Z" fill="url(#paint1_linear_33_191)" mask="url(#path-1-outside-1_33_191)"/>
<defs>
<linearGradient id="paint0_linear_33_191" x1="178" y1="-30" x2="178" y2="110" gradientUnits="userSpaceOnUse">
<stop offset="0.169399" stop-color="white"/>
<stop offset="0.793335" stop-color="#030814"/>
</linearGradient>
<linearGradient id="paint1_linear_33_191" x1="181.132" y1="2.38319" x2="181.754" y2="78.0005" gradientUnits="userSpaceOnUse">
<stop offset="0.180113" stop-color="#E9B84E"/>
<stop offset="0.527603" stop-color="#E6CAA4"/>
<stop offset="0.764423" stop-color="#E9B84E" stop-opacity="0"/>
</linearGradient>
</defs>
</svg>
