<svg width="881" height="199" viewBox="0 0 881 199" fill="none"
    xmlns="http://www.w3.org/2000/svg">
    <mask id="path-1-outside-1_66_524" maskUnits="userSpaceOnUse" x="0.5" y="0" width="881" height="199" fill="black">
        <rect fill="white" x="0.5" width="881" height="199"/>
        <path d="M1.97852 75C3.14518 59.6667 8.31185 46.5 17.4785 35.5C26.6452 24.3333 38.8119 15.8333 53.9785 9.99999C69.3119 3.99999 86.4785 0.999998 105.479 0.999998C123.645 0.999998 139.479 3.75 152.979 9.25C166.479 14.5833 176.979 22.0833 184.479 31.75C191.979 41.25 195.729 52.3333 195.729 65C195.729 74.8333 192.895 84 187.229 92.5C181.562 101 172.895 109.167 161.229 117C149.562 124.833 134.562 132.583 116.229 140.25L71.9785 158.75L71.4785 143H200.479V193H7.47852V149L88.4785 105.75C100.145 99.5833 109.062 94.5 115.229 90.5C121.395 86.5 125.645 82.9167 127.979 79.75C130.479 76.4167 131.729 72.8333 131.729 69C131.729 64.8333 130.562 61.3333 128.229 58.5C126.062 55.6667 122.812 53.5 118.479 52C114.145 50.3333 108.979 49.5 102.979 49.5C94.6452 49.5 87.8119 50.6667 82.4785 53C77.3119 55.3333 73.3952 58.4167 70.7285 62.25C68.0618 66.0833 66.4785 70.3333 65.9785 75H1.97852ZM329.537 197.5C307.704 197.5 288.537 193.417 272.037 185.25C255.704 177.083 242.954 165.667 233.787 151C224.787 136.167 220.287 118.917 220.287 99.25C220.287 79.5833 224.787 62.4167 233.787 47.75C242.954 32.9167 255.704 21.4167 272.037 13.25C288.537 5.08333 307.704 0.999998 329.537 0.999998C351.37 0.999998 370.454 5.08333 386.787 13.25C403.287 21.4167 416.037 32.9167 425.037 47.75C434.204 62.4167 438.787 79.5833 438.787 99.25C438.787 118.917 434.204 136.167 425.037 151C416.037 165.667 403.287 177.083 386.787 185.25C370.454 193.417 351.37 197.5 329.537 197.5ZM329.787 145.5C343.954 145.5 354.954 141.5 362.787 133.5C370.787 125.333 374.787 113.917 374.787 99.25C374.787 84.4167 370.787 73 362.787 65C354.954 57 343.87 53 329.537 53C315.37 53 304.287 57 296.287 65C288.287 73 284.287 84.3333 284.287 99C284.287 113.833 288.287 125.333 296.287 133.5C304.287 141.5 315.454 145.5 329.787 145.5ZM454.859 75C456.026 59.6667 461.193 46.5 470.359 35.5C479.526 24.3333 491.693 15.8333 506.859 9.99999C522.193 3.99999 539.359 0.999998 558.359 0.999998C576.526 0.999998 592.359 3.75 605.859 9.25C619.359 14.5833 629.859 22.0833 637.359 31.75C644.859 41.25 648.609 52.3333 648.609 65C648.609 74.8333 645.776 84 640.109 92.5C634.443 101 625.776 109.167 614.109 117C602.443 124.833 587.443 132.583 569.109 140.25L524.859 158.75L524.359 143H653.359V193H460.359V149L541.359 105.75C553.026 99.5833 561.943 94.5 568.109 90.5C574.276 86.5 578.526 82.9167 580.859 79.75C583.359 76.4167 584.609 72.8333 584.609 69C584.609 64.8333 583.443 61.3333 581.109 58.5C578.943 55.6667 575.693 53.5 571.359 52C567.026 50.3333 561.859 49.5 555.859 49.5C547.526 49.5 540.693 50.6667 535.359 53C530.193 55.3333 526.276 58.4167 523.609 62.25C520.943 66.0833 519.359 70.3333 518.859 75H454.859ZM852.918 5.49999V193H789.418V34.25H806.668L715.918 134V114.75H879.918V161H670.418V116L771.668 5.49999H852.918Z"/>
    </mask>
    <path d="M1.97852 75C3.14518 59.6667 8.31185 46.5 17.4785 35.5C26.6452 24.3333 38.8119 15.8333 53.9785 9.99999C69.3119 3.99999 86.4785 0.999998 105.479 0.999998C123.645 0.999998 139.479 3.75 152.979 9.25C166.479 14.5833 176.979 22.0833 184.479 31.75C191.979 41.25 195.729 52.3333 195.729 65C195.729 74.8333 192.895 84 187.229 92.5C181.562 101 172.895 109.167 161.229 117C149.562 124.833 134.562 132.583 116.229 140.25L71.9785 158.75L71.4785 143H200.479V193H7.47852V149L88.4785 105.75C100.145 99.5833 109.062 94.5 115.229 90.5C121.395 86.5 125.645 82.9167 127.979 79.75C130.479 76.4167 131.729 72.8333 131.729 69C131.729 64.8333 130.562 61.3333 128.229 58.5C126.062 55.6667 122.812 53.5 118.479 52C114.145 50.3333 108.979 49.5 102.979 49.5C94.6452 49.5 87.8119 50.6667 82.4785 53C77.3119 55.3333 73.3952 58.4167 70.7285 62.25C68.0618 66.0833 66.4785 70.3333 65.9785 75H1.97852ZM329.537 197.5C307.704 197.5 288.537 193.417 272.037 185.25C255.704 177.083 242.954 165.667 233.787 151C224.787 136.167 220.287 118.917 220.287 99.25C220.287 79.5833 224.787 62.4167 233.787 47.75C242.954 32.9167 255.704 21.4167 272.037 13.25C288.537 5.08333 307.704 0.999998 329.537 0.999998C351.37 0.999998 370.454 5.08333 386.787 13.25C403.287 21.4167 416.037 32.9167 425.037 47.75C434.204 62.4167 438.787 79.5833 438.787 99.25C438.787 118.917 434.204 136.167 425.037 151C416.037 165.667 403.287 177.083 386.787 185.25C370.454 193.417 351.37 197.5 329.537 197.5ZM329.787 145.5C343.954 145.5 354.954 141.5 362.787 133.5C370.787 125.333 374.787 113.917 374.787 99.25C374.787 84.4167 370.787 73 362.787 65C354.954 57 343.87 53 329.537 53C315.37 53 304.287 57 296.287 65C288.287 73 284.287 84.3333 284.287 99C284.287 113.833 288.287 125.333 296.287 133.5C304.287 141.5 315.454 145.5 329.787 145.5ZM454.859 75C456.026 59.6667 461.193 46.5 470.359 35.5C479.526 24.3333 491.693 15.8333 506.859 9.99999C522.193 3.99999 539.359 0.999998 558.359 0.999998C576.526 0.999998 592.359 3.75 605.859 9.25C619.359 14.5833 629.859 22.0833 637.359 31.75C644.859 41.25 648.609 52.3333 648.609 65C648.609 74.8333 645.776 84 640.109 92.5C634.443 101 625.776 109.167 614.109 117C602.443 124.833 587.443 132.583 569.109 140.25L524.859 158.75L524.359 143H653.359V193H460.359V149L541.359 105.75C553.026 99.5833 561.943 94.5 568.109 90.5C574.276 86.5 578.526 82.9167 580.859 79.75C583.359 76.4167 584.609 72.8333 584.609 69C584.609 64.8333 583.443 61.3333 581.109 58.5C578.943 55.6667 575.693 53.5 571.359 52C567.026 50.3333 561.859 49.5 555.859 49.5C547.526 49.5 540.693 50.6667 535.359 53C530.193 55.3333 526.276 58.4167 523.609 62.25C520.943 66.0833 519.359 70.3333 518.859 75H454.859ZM852.918 5.49999V193H789.418V34.25H806.668L715.918 134V114.75H879.918V161H670.418V116L771.668 5.49999H852.918Z" fill="url(#paint0_linear_66_524)" fill-opacity="0.2"/>
    <path d="M1.97852 75L0.981398 74.9241L0.899539 76H1.97852V75ZM17.4785 35.5L18.2468 36.1402L18.2514 36.1345L17.4785 35.5ZM53.9785 9.99998L54.3375 10.9333L54.3429 10.9312L53.9785 9.99998ZM152.979 9.25L152.601 10.1761L152.611 10.18L152.979 9.25ZM184.479 31.75L183.688 32.363L183.694 32.3696L184.479 31.75ZM187.229 92.5L188.061 93.0547L187.229 92.5ZM161.229 117L160.671 116.17L161.229 117ZM116.229 140.25L116.614 141.173L116.614 141.173L116.229 140.25ZM71.9785 158.75L70.979 158.782L71.0251 160.232L72.3643 159.673L71.9785 158.75ZM71.4785 143V142H70.4463L70.479 143.032L71.4785 143ZM200.479 143H201.479V142H200.479V143ZM200.479 193V194H201.479V193H200.479ZM7.47852 193H6.47852V194H7.47852V193ZM7.47852 149L7.0075 148.118L6.47852 148.4V149H7.47852ZM88.4785 105.75L88.0112 104.866L88.0075 104.868L88.4785 105.75ZM115.229 90.5L114.684 89.661L115.229 90.5ZM127.979 79.75L127.178 79.15L127.173 79.1568L127.979 79.75ZM128.229 58.5L127.434 59.1074L127.445 59.1218L127.457 59.1357L128.229 58.5ZM118.479 52L118.12 52.9333L118.135 52.9394L118.151 52.945L118.479 52ZM82.4785 53L82.0777 52.0838L82.0669 52.0886L82.4785 53ZM65.9785 75V76H66.8771L66.9728 75.1065L65.9785 75ZM2.97563 75.0759C4.12776 59.9337 9.22321 46.9684 18.2467 36.1402L16.7103 34.8598C7.40049 46.0316 2.16261 59.3997 0.981398 74.9241L2.97563 75.0759ZM18.2514 36.1345C27.2951 25.1176 39.3118 16.7124 54.3375 10.9333L53.6195 9.06664C38.3119 14.9542 25.9952 23.549 16.7056 34.8655L18.2514 36.1345ZM54.3429 10.9312C69.5437 4.9831 86.5843 2 105.479 2V0C86.3728 0 69.08 3.01688 53.6141 9.06874L54.3429 10.9312ZM105.479 2C123.547 2 139.247 4.7353 152.601 10.1761L153.356 8.32391C139.71 2.76469 123.744 0 105.479 0V2ZM152.611 10.18C165.976 15.4599 176.317 22.8624 183.688 32.363L185.269 31.137C177.64 21.3043 166.981 13.7068 153.346 8.31995L152.611 10.18ZM183.694 32.3696C191.047 41.6845 194.729 52.5469 194.729 65H196.729C196.729 52.1197 192.91 40.8155 185.263 31.1303L183.694 32.3696ZM194.729 65C194.729 74.6279 191.958 83.6028 186.396 91.9453L188.061 93.0547C193.832 84.3972 196.729 75.0387 196.729 65H194.729ZM186.396 91.9453C180.824 100.304 172.267 108.384 160.671 116.17L161.786 117.83C173.523 109.95 182.3 101.696 188.061 93.0547L186.396 91.9453ZM160.671 116.17C149.076 123.955 134.139 131.676 115.843 139.327L116.614 141.173C134.985 133.49 150.048 125.711 161.786 117.83L160.671 116.17ZM115.843 139.327L71.5928 157.827L72.3643 159.673L116.614 141.173L115.843 139.327ZM72.978 158.718L72.478 142.968L70.479 143.032L70.979 158.782L72.978 158.718ZM71.4785 144H200.479V142H71.4785V144ZM199.479 143V193H201.479V143H199.479ZM200.479 192H7.47852V194H200.479V192ZM8.47852 193V149H6.47852V193H8.47852ZM7.94953 149.882L88.9495 106.632L88.0075 104.868L7.0075 148.118L7.94953 149.882ZM88.9458 106.634C100.622 100.463 109.569 95.3631 115.773 91.339L114.684 89.661C108.555 93.6369 99.6687 98.7041 88.0112 104.866L88.9458 106.634ZM115.773 91.339C121.968 87.3202 126.341 83.6578 128.784 80.3432L127.173 79.1568C124.949 82.1755 120.822 85.6798 114.684 89.661L115.773 91.339ZM128.779 80.35C131.396 76.8595 132.729 73.0688 132.729 69H130.729C130.729 72.5978 129.561 75.9738 127.179 79.15L128.779 80.35ZM132.729 69C132.729 64.6346 131.501 60.9007 129 57.8643L127.457 59.1357C129.623 61.7659 130.729 65.0321 130.729 69H132.729ZM129.023 57.8925C126.707 54.8643 123.272 52.601 118.806 51.055L118.151 52.945C122.352 54.399 125.417 56.469 127.434 59.1074L129.023 57.8925ZM118.838 51.0667C114.362 49.3451 109.067 48.5 102.979 48.5V50.5C108.89 50.5 113.929 51.3215 118.12 52.9333L118.838 51.0667ZM102.979 48.5C94.5622 48.5 87.5796 49.6768 82.0777 52.0838L82.8793 53.9162C88.0441 51.6566 94.7281 50.5 102.979 50.5V48.5ZM82.0669 52.0886C76.7709 54.4804 72.6975 57.6684 69.9076 61.6789L71.5494 62.8211C74.0928 59.1649 77.8529 56.1863 82.8901 53.9114L82.0669 52.0886ZM69.9076 61.6789C67.1446 65.6508 65.502 70.0607 64.9842 74.8935L66.9728 75.1065C67.455 70.6059 68.9791 66.5158 71.5494 62.8211L69.9076 61.6789ZM65.9785 74H1.97852V76H65.9785V74ZM272.037 185.25L271.59 186.144L271.594 186.146L272.037 185.25ZM233.787 151L232.932 151.519L232.939 151.53L233.787 151ZM233.787 47.75L232.936 47.2243L232.935 47.227L233.787 47.75ZM272.037 13.25L271.594 12.3538L271.59 12.3556L272.037 13.25ZM386.787 13.25L386.34 14.1444L386.344 14.1462L386.787 13.25ZM425.037 47.75L424.182 48.2688L424.189 48.28L425.037 47.75ZM425.037 151L424.186 150.474L424.185 150.477L425.037 151ZM386.787 185.25L386.344 184.354L386.34 184.356L386.787 185.25ZM362.787 133.5L362.073 132.8L362.073 132.8L362.787 133.5ZM362.787 65L362.073 65.6997L362.08 65.7071L362.787 65ZM296.287 65L295.58 64.2929L296.287 65ZM296.287 133.5L295.573 134.2L295.58 134.207L296.287 133.5ZM329.537 196.5C307.829 196.5 288.819 192.441 272.481 184.354L271.594 186.146C288.255 194.393 307.578 198.5 329.537 198.5V196.5ZM272.484 184.356C256.306 176.266 243.699 164.972 234.635 150.47L232.939 151.53C242.209 166.362 255.102 177.9 271.59 186.144L272.484 184.356ZM234.642 150.481C225.749 135.824 221.287 118.759 221.287 99.25H219.287C219.287 119.075 223.825 136.509 232.932 151.519L234.642 150.481ZM221.287 99.25C221.287 79.741 225.749 62.7608 234.639 48.273L232.935 47.227C223.825 62.0725 219.287 79.4256 219.287 99.25H221.287ZM234.638 48.2757C243.702 33.608 256.309 22.2321 272.484 14.1444L271.59 12.3556C255.099 20.6012 242.205 32.2253 232.936 47.2243L234.638 48.2757ZM272.481 14.1462C288.819 6.05939 307.829 2 329.537 2V0C307.578 0 288.255 4.10727 271.594 12.3538L272.481 14.1462ZM329.537 2C351.245 2 370.17 6.05949 386.34 14.1444L387.234 12.3556C370.738 4.10716 351.496 0 329.537 0V2ZM386.344 14.1462C402.684 22.234 415.287 33.6078 424.182 48.2687L425.892 47.2313C416.787 32.2255 403.89 20.5993 387.231 12.3538L386.344 14.1462ZM424.189 48.28C433.243 62.7668 437.787 79.7444 437.787 99.25H439.787C439.787 79.4222 435.164 62.0665 425.885 47.22L424.189 48.28ZM437.787 99.25C437.787 118.755 433.243 135.818 424.186 150.474L425.888 151.526C435.164 136.515 439.787 119.078 439.787 99.25H437.787ZM424.185 150.477C415.29 164.972 402.687 176.264 386.344 184.354L387.231 186.146C403.887 177.902 416.784 166.361 425.889 151.523L424.185 150.477ZM386.34 184.356C370.17 192.44 351.245 196.5 329.537 196.5V198.5C351.496 198.5 370.738 194.393 387.234 186.144L386.34 184.356ZM329.787 146.5C344.147 146.5 355.433 142.44 363.502 134.2L362.073 132.8C354.474 140.56 343.76 144.5 329.787 144.5V146.5ZM363.501 134.2C371.732 125.797 375.787 114.101 375.787 99.25H373.787C373.787 113.732 369.842 124.869 362.073 132.8L363.501 134.2ZM375.787 99.25C375.787 84.2372 371.735 72.5334 363.494 64.2929L362.08 65.7071C369.839 73.4666 373.787 84.5961 373.787 99.25H375.787ZM363.502 64.3004C355.431 56.0582 344.06 52 329.537 52V54C343.681 54 354.476 57.9418 362.073 65.6996L363.502 64.3004ZM329.537 52C315.176 52 303.812 56.0607 295.58 64.2929L296.994 65.7071C304.762 57.9393 315.565 54 329.537 54V52ZM295.58 64.2929C287.342 72.5314 283.287 84.1501 283.287 99H285.287C285.287 84.5165 289.233 73.4686 296.994 65.7071L295.58 64.2929ZM283.287 99C283.287 114.014 287.34 125.795 295.573 134.2L297.001 132.8C289.234 124.871 285.287 113.653 285.287 99H283.287ZM295.58 134.207C303.814 142.441 315.263 146.5 329.787 146.5V144.5C315.645 144.5 304.76 140.559 296.994 132.793L295.58 134.207ZM454.859 75L453.862 74.9241L453.78 76H454.859V75ZM470.359 35.5L471.128 36.1402L471.132 36.1345L470.359 35.5ZM506.859 9.99998L507.218 10.9333L507.224 10.9312L506.859 9.99998ZM605.859 9.25L605.482 10.1761L605.492 10.18L605.859 9.25ZM637.359 31.75L636.569 32.363L636.575 32.3696L637.359 31.75ZM640.109 92.5L640.941 93.0547L640.109 92.5ZM614.109 117L613.552 116.17L614.109 117ZM569.109 140.25L569.495 141.173L569.495 141.173L569.109 140.25ZM524.859 158.75L523.86 158.782L523.906 160.232L525.245 159.673L524.859 158.75ZM524.359 143V142H523.327L523.36 143.032L524.359 143ZM653.359 143H654.359V142H653.359V143ZM653.359 193V194H654.359V193H653.359ZM460.359 193H459.359V194H460.359V193ZM460.359 149L459.888 148.118L459.359 148.4V149H460.359ZM541.359 105.75L540.892 104.866L540.888 104.868L541.359 105.75ZM568.109 90.5L567.565 89.661L568.109 90.5ZM580.859 79.75L580.059 79.15L580.054 79.1568L580.859 79.75ZM581.109 58.5L580.315 59.1074L580.326 59.1218L580.337 59.1357L581.109 58.5ZM571.359 52L571 52.9333L571.016 52.9394L571.032 52.945L571.359 52ZM535.359 53L534.959 52.0838L534.948 52.0886L535.359 53ZM518.859 75V76H519.758L519.854 75.1065L518.859 75ZM455.857 75.0759C457.009 59.9337 462.104 46.9684 471.128 36.1402L469.591 34.8598C460.281 46.0316 455.043 59.3997 453.862 74.9241L455.857 75.0759ZM471.132 36.1345C480.176 25.1176 492.193 16.7124 507.218 10.9333L506.5 9.06664C491.193 14.9542 478.876 23.549 469.586 34.8655L471.132 36.1345ZM507.224 10.9312C522.425 4.9831 539.465 2 558.359 2V0C539.254 0 521.961 3.01688 506.495 9.06874L507.224 10.9312ZM558.359 2C576.427 2 592.127 4.7353 605.482 10.1761L606.237 8.32391C592.591 2.76469 576.625 0 558.359 0V2ZM605.492 10.18C618.857 15.4599 629.198 22.8624 636.569 32.363L638.149 31.137C630.521 21.3043 619.862 13.7068 606.227 8.31995L605.492 10.18ZM636.575 32.3696C643.928 41.6845 647.609 52.5469 647.609 65H649.609C649.609 52.1197 645.79 40.8155 638.144 31.1303L636.575 32.3696ZM647.609 65C647.609 74.6279 644.839 83.6028 639.277 91.9453L640.941 93.0547C646.713 84.3972 649.609 75.0387 649.609 65H647.609ZM639.277 91.9453C633.705 100.304 625.148 108.384 613.552 116.17L614.667 117.83C626.404 109.95 635.18 101.696 640.941 93.0547L639.277 91.9453ZM613.552 116.17C601.956 123.955 587.019 131.676 568.724 139.327L569.495 141.173C587.866 133.49 602.929 125.711 614.667 117.83L613.552 116.17ZM568.724 139.327L524.474 157.827L525.245 159.673L569.495 141.173L568.724 139.327ZM525.859 158.718L525.359 142.968L523.36 143.032L523.86 158.782L525.859 158.718ZM524.359 144H653.359V142H524.359V144ZM652.359 143V193H654.359V143H652.359ZM653.359 192H460.359V194H653.359V192ZM461.359 193V149H459.359V193H461.359ZM460.83 149.882L541.83 106.632L540.888 104.868L459.888 148.118L460.83 149.882ZM541.827 106.634C553.503 100.463 562.45 95.3631 568.654 91.339L567.565 89.661C561.436 93.6369 552.55 98.7041 540.892 104.866L541.827 106.634ZM568.654 91.339C574.849 87.3202 579.222 83.6578 581.664 80.3432L580.054 79.1568C577.83 82.1755 573.703 85.6798 567.565 89.661L568.654 91.339ZM581.659 80.35C584.277 76.8595 585.609 73.0688 585.609 69H583.609C583.609 72.5978 582.442 75.9738 580.059 79.15L581.659 80.35ZM585.609 69C585.609 64.6346 584.382 60.9007 581.881 57.8643L580.337 59.1357C582.504 61.7659 583.609 65.0321 583.609 69H585.609ZM581.904 57.8925C579.588 54.8643 576.153 52.601 571.686 51.055L571.032 52.945C575.233 54.399 578.297 56.469 580.315 59.1074L581.904 57.8925ZM571.718 51.0667C567.242 49.3451 561.948 48.5 555.859 48.5V50.5C561.771 50.5 566.81 51.3215 571 52.9333L571.718 51.0667ZM555.859 48.5C547.443 48.5 540.46 49.6768 534.959 52.0838L535.76 53.9162C540.925 51.6566 547.609 50.5 555.859 50.5V48.5ZM534.948 52.0886C529.652 54.4804 525.578 57.6684 522.788 61.6789L524.43 62.8211C526.974 59.1649 530.734 56.1863 535.771 53.9114L534.948 52.0886ZM522.788 61.6789C520.025 65.6508 518.383 70.0607 517.865 74.8935L519.854 75.1065C520.336 70.6059 521.86 66.5158 524.43 62.8211L522.788 61.6789ZM518.859 74H454.859V76H518.859V74ZM852.918 5.49998H853.918V4.49998H852.918V5.49998ZM852.918 193V194H853.918V193H852.918ZM789.418 193H788.418V194H789.418V193ZM789.418 34.25V33.25H788.418V34.25H789.418ZM806.668 34.25L807.408 34.9229L808.93 33.25H806.668V34.25ZM715.918 134H714.918V136.585L716.658 134.673L715.918 134ZM715.918 114.75V113.75H714.918V114.75H715.918ZM879.918 114.75H880.918V113.75H879.918V114.75ZM879.918 161V162H880.918V161H879.918ZM670.418 161H669.418V162H670.418V161ZM670.418 116L669.681 115.324L669.418 115.611V116H670.418ZM771.668 5.49998V4.49998H771.228L770.931 4.82441L771.668 5.49998ZM851.918 5.49998V193H853.918V5.49998H851.918ZM852.918 192H789.418V194H852.918V192ZM790.418 193V34.25H788.418V193H790.418ZM789.418 35.25H806.668V33.25H789.418V35.25ZM805.928 33.577L715.178 133.327L716.658 134.673L807.408 34.9229L805.928 33.577ZM716.918 134V114.75H714.918V134H716.918ZM715.918 115.75H879.918V113.75H715.918V115.75ZM878.918 114.75V161H880.918V114.75H878.918ZM879.918 160H670.418V162H879.918V160ZM671.418 161V116H669.418V161H671.418ZM671.155 116.676L772.405 6.17556L770.931 4.82441L669.681 115.324L671.155 116.676ZM771.668 6.49998H852.918V4.49998H771.668V6.49998Z" fill="url(#paint1_linear_66_524)" mask="url(#path-1-outside-1_66_524)"/>
    <defs>
        <linearGradient id="paint0_linear_66_524" x1="442" y1="-76" x2="442" y2="274" gradientUnits="userSpaceOnUse">
            <stop offset="0.377562" stop-color="white"/>
            <stop offset="0.962399" stop-color="#030814" stop-opacity="0"/>
        </linearGradient>
        <linearGradient id="paint1_linear_66_524" x1="449.83" y1="4.95797" x2="451.384" y2="194.001" gradientUnits="userSpaceOnUse">
            <stop offset="0.180113" stop-color="#E9B84E"/>
            <stop offset="0.527603" stop-color="#E6CAA4"/>
            <stop offset="0.764423" stop-color="#E9B84E" stop-opacity="0"/>
        </linearGradient>
    </defs>
</svg>
