<svg width="176" height="21" viewBox="0 0 176 21" fill="none" xmlns="http://www.w3.org/2000/svg">
<path fill-rule="evenodd" clip-rule="evenodd" d="M167.185 1.07657L175.921 20.4775H170.852L169.155 16.5658H159.018L157.349 20.4775H152.281L160.983 1.07657H167.185ZM49.1193 12.5665L48.493 16.4782H60.6862V20.4833H43.3674L44.8253 10.7683L43.3674 1.08241H60.5665V5.05251H48.527L49.125 8.96422H59.2909V12.5723H49.125L49.1193 12.5665ZM16.6003 8.96422V12.5723H5.83654L5.21007 16.4841H17.4033V20.4892H0.0844727L1.54242 10.7741L0.0844727 1.07657H17.2837V5.04667H5.23855L5.83654 8.9584H16.5946L16.6003 8.96422ZM29.9496 15.9294L36.4193 1.07657H41.4594L32.575 20.4775H27.1819L18.2974 1.07657H23.3945L29.9496 15.9294ZM79.1953 14.9486V1.07657H83.814V20.4775H77.8227L67.8393 6.30193V20.4775H63.2204V1.07657H69.3883L79.1953 14.9486ZM98.2682 5.38531L98.2397 20.4833H93.5013V5.38531H86.1091V1.07657H105.632L105.603 5.38531H98.2682ZM107.927 1.07657H112.694V20.4775H107.927V1.07657ZM115.468 14.1254H120.297C120.388 14.7034 120.627 15.223 121.071 15.6842C121.521 16.1454 122.085 16.4782 122.831 16.7234C123.549 16.9686 124.409 17.0913 125.394 17.0913C126.795 17.0913 127.9 16.8752 128.674 16.4782C129.477 16.0812 129.899 15.5324 129.899 14.7968C129.899 14.248 129.66 13.8218 129.181 13.5123C128.731 13.2087 127.871 12.9927 126.59 12.8701L122.951 12.4731C120.388 12.2279 118.571 11.6149 117.438 10.669C116.305 9.72322 115.741 8.40958 115.741 6.78651C115.741 5.47288 116.1 4.37526 116.846 3.45863C117.592 2.54201 118.662 1.87059 120.006 1.38017C121.35 0.889744 122.957 0.644531 124.773 0.644531C126.59 0.644531 128.139 0.918936 129.54 1.43855C130.913 1.98736 132.012 2.723 132.849 3.66882C133.652 4.61464 134.102 5.71808 134.159 6.99669H129.358C129.267 6.47708 129.062 6.02168 128.64 5.65387C128.253 5.28605 127.718 4.98244 127.063 4.76644C126.408 4.55041 125.605 4.46284 124.648 4.46284C123.395 4.46284 122.381 4.64383 121.635 5.01164C120.889 5.37946 120.502 5.89907 120.502 6.59969C120.502 7.1193 120.741 7.5163 121.185 7.8199C121.635 8.09431 122.41 8.31034 123.572 8.46212L127.416 8.88833C129.204 9.06932 130.605 9.37875 131.676 9.80496C132.718 10.202 133.492 10.78 133.971 11.5156C134.421 12.2162 134.654 13.1328 134.654 14.2363C134.654 15.5791 134.267 16.741 133.492 17.7218C132.718 18.7318 131.613 19.4967 130.212 20.0455C128.811 20.5943 127.171 20.8686 125.292 20.8686C123.412 20.8686 121.686 20.5943 120.223 20.0105C118.765 19.4616 117.597 18.6676 116.794 17.6576C115.957 16.6475 115.513 15.4565 115.45 14.1137L115.468 14.1254ZM147.48 5.38531L147.451 20.4833H142.713V5.38531H135.321V1.07657H154.843L154.815 5.38531H147.48ZM167.452 12.6307L164.087 4.80729L160.721 12.6307H167.458H167.452Z" fill="url(#paint0_linear_66_2055)"/>
<defs>
<linearGradient id="paint0_linear_66_2055" x1="0.341048" y1="8.23671" x2="92.3991" y2="95.9219" gradientUnits="userSpaceOnUse">
<stop stop-color="#EF3745"/>
<stop offset="1" stop-color="#EE2A35"/>
</linearGradient>
</defs>
</svg>
