<svg width="150" height="48" viewBox="0 0 150 48" fill="none" xmlns="http://www.w3.org/2000/svg">
    <path
        d="M54.0646 5.48145H38.6234C38.1741 5.48145 37.811 5.84448 37.811 6.2938V8.90504C37.811 9.35436 38.1741 9.71739 38.6234 9.71739H43.9322V29.681C43.9322 30.1303 44.2952 30.4934 44.7445 30.4934H47.8816C48.3309 30.4934 48.6939 30.1303 48.6939 29.681V9.71739H54.0646C54.5139 9.71739 54.8769 9.35436 54.8769 8.90504V6.2938C54.8769 5.84448 54.5139 5.48145 54.0646 5.48145Z"
        fill="white" />
    <path
        d="M126.411 5.48145H123.274C122.825 5.48145 122.461 5.84515 122.461 6.2938V29.681C122.461 30.1297 122.825 30.4934 123.274 30.4934H126.411C126.86 30.4934 127.223 30.1297 127.223 29.681V6.2938C127.223 5.84515 126.86 5.48145 126.411 5.48145Z"
        fill="white" />
    <path
        d="M113.928 5.48145V22.5229L104.344 5.48145H100.867C99.9696 5.48145 99.2419 6.20914 99.2419 7.10615V30.4934H103.725V13.1166L113.457 29.6908C113.749 30.1873 114.283 30.4934 114.859 30.4934H118.411V5.48145H113.928Z"
        fill="white" />
    <path
        d="M142.829 17.4541L149.323 5.48047H144.841L140.501 13.223L138.026 17.6348L130.818 30.494H135.755L140.367 21.9912L144.478 29.6394C144.761 30.1668 145.311 30.494 145.909 30.494H150L142.827 17.4541H142.829Z"
        fill="white" />
    <path
        d="M139.075 10.633L136.704 6.32212C136.419 5.8028 135.872 5.48047 135.28 5.48047H131.493L136.558 14.9031L139.073 10.633H139.075Z"
        fill="white" />
    <path
        d="M63.7491 26.443V19.4868H72.0354V15.4364H63.7491V9.5318H74.8176V5.48145H60.612C59.715 5.48145 58.9873 6.20914 58.9873 7.10615V28.8687C58.9873 29.7657 59.715 30.4934 60.612 30.4934H75.5583V26.443H63.7475H63.7491Z"
        fill="white" />
    <path d="M83.4443 5.48047V12.8209L78.9153 21.0779V7.10517C78.9153 6.20817 79.643 5.48047 80.54 5.48047H83.4443Z"
        fill="white" />
    <path
        d="M95.7808 30.4937L91.5547 30.5165C90.9214 30.5198 90.3435 30.1551 90.0748 29.5821L86.9361 22.896L86.158 21.2404L83.4426 26.1096V30.4921H78.9136V26.4417L83.4426 18.1864L86.1612 13.2308L90.4151 5.47852H94.9424L88.3899 17.2324L89.0183 18.3605L95.7776 30.4921L95.7808 30.4937Z"
        fill="white" />
    <path
        d="M33.2283 14.5451C33.8074 14.5451 34.2767 14.0757 34.2767 13.4966C34.2767 12.9176 33.8074 12.4482 33.2283 12.4482C32.6493 12.4482 32.1799 12.9176 32.1799 13.4966C32.1799 14.0757 32.6493 14.5451 33.2283 14.5451Z"
        fill="white" />
    <path
        d="M5.70935 6.01792C5.69307 6.01792 5.67842 6.01466 5.6654 6.00652C5.64424 5.99513 5.62958 5.97559 5.6247 5.9528L5.54168 5.6386C5.52865 5.59139 5.55795 5.54255 5.60517 5.52953L20.947 1.46126C20.947 1.46126 20.9617 1.45801 20.9698 1.45801C21.0089 1.45801 21.0447 1.48406 21.0561 1.52313L21.1391 1.83732C21.1456 1.86011 21.1424 1.88453 21.1294 1.90407C21.118 1.92523 21.0984 1.93988 21.0756 1.94477L5.73377 6.01303C5.73377 6.01303 5.71912 6.01629 5.71098 6.01629L5.70935 6.01792Z"
        fill="white" />
    <path
        d="M32.7594 13.2642C32.7366 13.2642 32.7138 13.2561 32.6959 13.2382L21.6226 2.06877C21.5884 2.03458 21.5884 1.9776 21.6226 1.94341L21.8521 1.7155C21.8684 1.69922 21.8912 1.68945 21.914 1.68945C21.9368 1.68945 21.9596 1.69922 21.9758 1.7155L33.0492 12.8849C33.0655 12.9012 33.0752 12.924 33.0752 12.9484C33.0752 12.9728 33.0655 12.994 33.0492 13.0119L32.818 13.2398C32.8001 13.2577 32.7773 13.2659 32.7562 13.2659L32.7594 13.2642Z"
        fill="white" />
    <path
        d="M33.1876 13.7426C33.1876 13.7426 33.1713 13.7426 33.1648 13.7393L5.90136 6.36469C5.87857 6.35818 5.85903 6.34353 5.84764 6.32236C5.83624 6.3012 5.83299 6.27678 5.8395 6.25562L5.92415 5.94305C5.93555 5.90398 5.97136 5.87793 6.01043 5.87793C6.01857 5.87793 6.02671 5.87793 6.03323 5.88119L33.2966 13.2558C33.3438 13.2689 33.3715 13.3177 33.3585 13.3649L33.2738 13.6775C33.2673 13.7003 33.2527 13.7198 33.2331 13.7312C33.2201 13.7393 33.2038 13.7426 33.1892 13.7426H33.1876Z"
        fill="white" />
    <path
        d="M19.5908 9.8956C19.5908 9.8956 19.5762 9.8956 19.568 9.89235L19.2538 9.81095C19.2066 9.79955 19.1773 9.75071 19.1904 9.7035L21.1716 2.0228C21.1814 1.9821 21.2188 1.95605 21.2579 1.95605C21.2644 1.95605 21.2725 1.95605 21.2807 1.95931L21.5949 2.04071C21.6176 2.04722 21.6372 2.06187 21.6486 2.08141C21.66 2.10094 21.6649 2.12536 21.6583 2.14815L19.6787 9.82886C19.6722 9.85165 19.6576 9.87118 19.638 9.88258C19.625 9.89072 19.6087 9.89397 19.5925 9.89397L19.5908 9.8956Z"
        fill="white" />
    <path
        d="M8.85449 19.7208C8.83821 19.7208 8.82356 19.7175 8.81053 19.7094C8.78937 19.698 8.77472 19.6784 8.76983 19.6556L5.16716 6.18917C5.15414 6.14196 5.18344 6.09312 5.23065 6.0801L5.54485 5.99544C5.54485 5.99544 5.5595 5.99219 5.56764 5.99219C5.58392 5.99219 5.59857 5.99544 5.6116 6.00358C5.63276 6.01498 5.64741 6.03451 5.65229 6.05731L9.25496 19.5238C9.26799 19.571 9.23869 19.6198 9.19147 19.6328L8.8789 19.7175C8.8789 19.7175 8.86426 19.7208 8.85612 19.7208H8.85449Z"
        fill="white" />
    <path
        d="M1.20474 21.9947C1.20474 21.9947 1.18846 21.9947 1.18195 21.9915L0.869379 21.9052C0.846587 21.8987 0.827054 21.884 0.815658 21.8628C0.804263 21.8417 0.801006 21.8173 0.807518 21.7961L5.16719 5.9284C5.17858 5.88933 5.2144 5.86328 5.25347 5.86328C5.26161 5.86328 5.26975 5.86328 5.27626 5.86654L5.58883 5.95282C5.61162 5.95933 5.63116 5.97398 5.64255 5.99515C5.65395 6.01631 5.6572 6.04073 5.65069 6.06189L1.29102 21.9296C1.27963 21.9687 1.24381 21.9947 1.20474 21.9947Z"
        fill="white" />
    <path
        d="M12.7893 34.2184C12.7665 34.2184 12.7437 34.2103 12.7258 34.1924L1.1364 22.6111C1.12012 22.5948 1.11035 22.572 1.11035 22.5476C1.11035 22.5232 1.12012 22.502 1.1364 22.4841L1.36594 22.2546C1.38385 22.2367 1.40664 22.2285 1.42943 22.2285C1.45222 22.2285 1.47501 22.2367 1.49292 22.2546L13.0823 33.8359C13.0986 33.8521 13.1084 33.8749 13.1084 33.8993C13.1084 33.9238 13.0986 33.9449 13.0823 33.9628L12.8528 34.1924C12.8349 34.2103 12.8121 34.2184 12.7893 34.2184Z"
        fill="white" />
    <path
        d="M13.0189 34.2187C12.9961 34.2187 12.9733 34.2105 12.957 34.1926L12.7275 33.9647C12.7112 33.9484 12.7014 33.9256 12.7014 33.9012C12.7014 33.8784 12.7112 33.8556 12.7275 33.8377L32.8262 13.5925C32.8425 13.5762 32.8653 13.5664 32.8897 13.5664C32.9125 13.5664 32.9353 13.5762 32.9516 13.5925L33.1811 13.8204C33.2153 13.8546 33.2153 13.9115 33.1811 13.9457L13.0824 34.1894C13.0644 34.2073 13.0417 34.2154 13.0189 34.2154V34.2187Z"
        fill="white" />
    <path
        d="M1.35274 22.2291C1.31204 22.2291 1.27622 22.2014 1.26646 22.1607L1.18994 21.8465C1.18506 21.8237 1.18832 21.7993 1.19971 21.7797C1.21111 21.7602 1.23227 21.7455 1.25506 21.739L9.34601 19.7562C9.34601 19.7562 9.36066 19.7529 9.36717 19.7529C9.40787 19.7529 9.44368 19.7806 9.45345 19.8213L9.52997 20.1355C9.53485 20.1583 9.53159 20.1827 9.5202 20.2022C9.5088 20.2218 9.48764 20.2364 9.46485 20.2429L1.3739 22.2258C1.3739 22.2258 1.35925 22.2291 1.35274 22.2291Z"
        fill="white" />
    <path
        d="M9.74824 19.8408C9.72545 19.8408 9.70266 19.831 9.68638 19.8147L9.45521 19.5868C9.42102 19.5526 9.41939 19.4956 9.45521 19.4614L19.1269 9.63347C19.1448 9.61556 19.1676 9.60742 19.1904 9.60742C19.2132 9.60742 19.236 9.61556 19.2523 9.63347L19.4834 9.86138C19.4997 9.87766 19.5095 9.90045 19.5095 9.92325C19.5095 9.94766 19.4997 9.96883 19.4834 9.98674L9.81173 19.8147C9.79545 19.831 9.77266 19.8408 9.74987 19.8408H9.74824Z"
        fill="white" />
    <path
        d="M22.798 23.445C22.7833 23.445 22.7671 23.4417 22.754 23.4336C22.7329 23.4222 22.7182 23.4026 22.7117 23.3798L19.0602 10.2601C19.0537 10.2373 19.0569 10.2129 19.0683 10.1934C19.0797 10.1739 19.0993 10.1576 19.1221 10.1511L19.4346 10.0648C19.4346 10.0648 19.4509 10.0615 19.4591 10.0615C19.4981 10.0615 19.5339 10.0876 19.5453 10.1266L23.1968 23.2464C23.2099 23.2936 23.1822 23.3424 23.135 23.3554L22.8224 23.4417C22.8224 23.4417 22.8061 23.445 22.798 23.445Z"
        fill="white" />
    <path
        d="M28.6668 29.6097C28.644 29.6097 28.6212 29.5999 28.6049 29.5853L22.964 24.073C22.9478 24.0567 22.938 24.0339 22.938 24.0111C22.938 23.9867 22.9461 23.9656 22.964 23.9476L23.1903 23.7165C23.2082 23.6986 23.231 23.6904 23.2538 23.6904C23.2766 23.6904 23.2994 23.6986 23.3157 23.7148L28.9565 29.2271C28.9924 29.2613 28.9924 29.3183 28.9565 29.3525L28.7303 29.5853C28.714 29.6015 28.6912 29.6113 28.6684 29.6113L28.6668 29.6097Z"
        fill="white" />
    <path
        d="M29.3569 29.4064C29.3569 29.4064 29.3423 29.4064 29.3342 29.4031L29.02 29.3201C28.9727 29.3071 28.9434 29.2599 28.9565 29.211L32.9857 13.8626C32.9954 13.8219 33.0329 13.7959 33.0719 13.7959C33.0801 13.7959 33.0866 13.7959 33.0947 13.7992L33.4089 13.8806C33.4317 13.8871 33.4513 13.9017 33.4627 13.9213C33.4741 13.9408 33.4773 13.9652 33.4724 13.988L29.4432 29.3364C29.4367 29.3592 29.4221 29.3787 29.4025 29.3901C29.3895 29.3982 29.3732 29.4015 29.3569 29.4015V29.4064Z"
        fill="white" />
    <path
        d="M22.5261 23.7284C22.5261 23.7284 22.5114 23.7284 22.5033 23.7251L9.66523 20.3959C9.61802 20.3845 9.58871 20.3357 9.60173 20.2885L9.68313 19.9743C9.68964 19.9515 9.70429 19.932 9.72383 19.9206C9.73848 19.9124 9.75313 19.9092 9.76941 19.9092C9.77755 19.9092 9.78407 19.9092 9.79221 19.9124L22.6303 23.2416C22.6775 23.253 22.7068 23.3018 22.6938 23.3491L22.6124 23.6632C22.6059 23.686 22.5912 23.7056 22.5717 23.717C22.557 23.7251 22.5424 23.7284 22.5261 23.7284Z"
        fill="white" />
    <path
        d="M12.6427 33.6639C12.6037 33.6639 12.5679 33.6379 12.5565 33.5988L9.09868 21.0033C9.08565 20.9561 9.11333 20.9072 9.16054 20.8942L9.47311 20.8079C9.47311 20.8079 9.48939 20.8047 9.4959 20.8047C9.51055 20.8047 9.52683 20.8079 9.53985 20.8161C9.56102 20.8275 9.57567 20.847 9.58218 20.8698L13.04 33.4669C13.0465 33.4897 13.0432 33.5142 13.0318 33.5337C13.0204 33.5532 13.0009 33.5695 12.9781 33.576L12.6655 33.6623C12.6655 33.6623 12.6493 33.6656 12.6427 33.6656V33.6639Z"
        fill="white" />
    <path
        d="M11.5276 39.847C11.4332 39.847 11.3404 39.8144 11.2655 39.7575C11.1272 39.65 11.0686 39.4726 11.1125 39.3049L12.5158 34.1117C12.5223 34.0889 12.537 34.0694 12.5565 34.058C12.5695 34.0498 12.5858 34.0466 12.6005 34.0466C12.6086 34.0466 12.6167 34.0466 12.6232 34.0498L12.9358 34.1345C12.983 34.1475 13.0107 34.1963 12.9977 34.2436L11.64 39.2691L28.8214 29.4313C28.8344 29.4232 28.8507 29.4199 28.8654 29.4199C28.8735 29.4199 28.8817 29.4199 28.8882 29.4232C28.911 29.4297 28.9305 29.4443 28.9419 29.4639L29.1031 29.7455C29.1275 29.7878 29.1128 29.8432 29.0705 29.8676L11.7376 39.7916C11.6725 39.8291 11.5993 39.8486 11.5244 39.8486L11.5276 39.847Z"
        fill="white" />
    <path
        d="M1.0484 23.0314C1.62742 23.0314 2.09681 22.562 2.09681 21.983C2.09681 21.404 1.62742 20.9346 1.0484 20.9346C0.469387 20.9346 0 21.404 0 21.983C0 22.562 0.469387 23.0314 1.0484 23.0314Z"
        fill="white" />
    <path
        d="M9.12482 21.049C9.70384 21.049 10.1732 20.5796 10.1732 20.0006C10.1732 19.4215 9.70384 18.9521 9.12482 18.9521C8.5458 18.9521 8.07642 19.4215 8.07642 20.0006C8.07642 20.5796 8.5458 21.049 9.12482 21.049Z"
        fill="white" />
    <path
        d="M21.5184 2.7472C22.0974 2.7472 22.5668 2.27781 22.5668 1.6988C22.5668 1.11978 22.0974 0.650391 21.5184 0.650391C20.9394 0.650391 20.47 1.11978 20.47 1.6988C20.47 2.27781 20.9394 2.7472 21.5184 2.7472Z"
        fill="white" />
    <path
        d="M5.40973 7.04212C5.98875 7.04212 6.45814 6.57274 6.45814 5.99372C6.45814 5.4147 5.98875 4.94531 5.40973 4.94531C4.83071 4.94531 4.36133 5.4147 4.36133 5.99372C4.36133 6.57274 4.83071 7.04212 5.40973 7.04212Z"
        fill="white" />
    <path
        d="M22.9542 24.5314C23.5332 24.5314 24.0026 24.062 24.0026 23.483C24.0026 22.904 23.5332 22.4346 22.9542 22.4346C22.3751 22.4346 21.9058 22.904 21.9058 23.483C21.9058 24.062 22.3751 24.5314 22.9542 24.5314Z"
        fill="white" />
    <path
        d="M28.95 30.6964C29.529 30.6964 29.9984 30.227 29.9984 29.648C29.9984 29.069 29.529 28.5996 28.95 28.5996C28.371 28.5996 27.9016 29.069 27.9016 29.648C27.9016 30.227 28.371 30.6964 28.95 30.6964Z"
        fill="white" />
    <path
        d="M19.3028 10.8458C19.8818 10.8458 20.3512 10.3764 20.3512 9.79743C20.3512 9.21841 19.8818 8.74902 19.3028 8.74902C18.7238 8.74902 18.2544 9.21841 18.2544 9.79743C18.2544 10.3764 18.7238 10.8458 19.3028 10.8458Z"
        fill="white" />
    <path d="M52.7539 39.0215L49.6379 43.067V47.1092H135.06L138.176 43.0621V39.0215H52.7539Z" fill="white" />
    <path d="M52.7554 39.0215H54.3231L49.6362 45.097V43.067L52.7554 39.0215Z" fill="white" />
    <path d="M138.176 41.082V43.0616L135.06 47.1071H133.527L138.176 41.082Z" fill="white" />
    <path d="M60.0974 45.2115V40.9463H60.8186V45.2115H60.0974Z" fill="black" />
    <path
        d="M62.1829 45.2116V42.0729H62.8454L62.878 42.405C63.0196 42.2943 63.1889 42.2015 63.3843 42.1234C63.5813 42.0469 63.7978 42.0078 64.0371 42.0078C64.4441 42.0078 64.7388 42.1022 64.9243 42.2927C65.1099 42.4832 65.2027 42.7778 65.2027 43.1799V45.2133H64.4881V43.2125C64.4881 42.9699 64.4376 42.799 64.3383 42.703C64.239 42.6053 64.0518 42.5581 63.7783 42.5581C63.6155 42.5581 63.4543 42.5906 63.298 42.6574C63.1417 42.7241 63.0099 42.8104 62.904 42.9162V45.2149H62.1829V45.2116Z"
        fill="black" />
    <path
        d="M66.5408 45.2116V42.0729H67.2034L67.2359 42.405C67.3775 42.2943 67.5468 42.2015 67.7422 42.1234C67.9392 42.0469 68.1557 42.0078 68.395 42.0078C68.802 42.0078 69.0967 42.1022 69.2823 42.2927C69.4678 42.4832 69.5606 42.7778 69.5606 43.1799V45.2133H68.846V43.2125C68.846 42.9699 68.7955 42.799 68.6962 42.703C68.5969 42.6053 68.4097 42.5581 68.1362 42.5581C67.9734 42.5581 67.8122 42.5906 67.6559 42.6574C67.4996 42.7241 67.3678 42.8104 67.262 42.9162V45.2149H66.5408V45.2116Z"
        fill="black" />
    <path
        d="M72.3365 45.2787C71.7716 45.2787 71.3581 45.1371 71.0944 44.8554C70.8323 44.5722 70.7004 44.1684 70.7004 43.6442C70.7004 43.12 70.8323 42.7147 71.0977 42.433C71.363 42.1498 71.7749 42.0098 72.3365 42.0098C72.8982 42.0098 73.3166 42.1514 73.5819 42.433C73.8473 42.7163 73.9791 43.12 73.9791 43.6442C73.9791 44.1684 73.8473 44.5738 73.5852 44.8554C73.3231 45.1387 72.9063 45.2787 72.3365 45.2787ZM72.3365 44.6698C72.667 44.6698 72.9031 44.5901 73.0414 44.4273C73.1798 44.2661 73.2498 44.004 73.2498 43.6426C73.2498 43.2812 73.1798 43.0207 73.0414 42.8612C72.9031 42.7016 72.667 42.6235 72.3365 42.6235C72.0061 42.6235 71.7765 42.7033 71.6381 42.8612C71.4998 43.0207 71.4298 43.2812 71.4298 43.6426C71.4298 44.004 71.4998 44.2661 71.6381 44.4273C71.7765 44.5885 72.0093 44.6698 72.3365 44.6698Z"
        fill="black" />
    <path d="M75.952 45.2119L74.7131 42.0732H75.462L76.3427 44.5103L77.2234 42.0732H77.9658L76.7334 45.2119H75.952Z"
        fill="black" />
    <path
        d="M79.887 45.2784C79.6883 45.2784 79.5044 45.2426 79.3335 45.1726C79.1641 45.1026 79.0274 44.9951 78.9265 44.8519C78.8255 44.7086 78.7734 44.5311 78.7734 44.3195C78.7734 44.02 78.876 43.7774 79.0811 43.5951C79.2862 43.4127 79.6037 43.3199 80.0318 43.3199H81.0379V43.1816C81.0379 43.0318 81.0151 42.913 80.9679 42.8234C80.9223 42.7355 80.8377 42.6704 80.7156 42.6313C80.5935 42.5922 80.416 42.5711 80.1816 42.5711C79.8104 42.5711 79.4637 42.6264 79.1414 42.7371V42.1999C79.283 42.1429 79.4539 42.0957 79.6574 42.0615C79.8609 42.0257 80.0791 42.0078 80.3135 42.0078C80.7726 42.0078 81.1226 42.1006 81.3635 42.2862C81.6045 42.4718 81.7249 42.7746 81.7249 43.193V45.2133H81.1096L81.0623 44.8958C80.9337 45.0195 80.7758 45.114 80.5886 45.1807C80.4014 45.2474 80.1653 45.28 79.8837 45.28L79.887 45.2784ZM80.0791 44.7623C80.2956 44.7623 80.4844 44.7265 80.6456 44.6532C80.8068 44.58 80.9386 44.4823 81.0396 44.3586V43.8083H80.0465C79.8349 43.8083 79.6802 43.849 79.5858 43.9304C79.4914 44.0118 79.4425 44.1372 79.4425 44.3049C79.4425 44.4725 79.4979 44.5849 79.6086 44.6565C79.7193 44.7265 79.8756 44.7623 80.0791 44.7623Z"
        fill="black" />
    <path
        d="M84.2579 45.2782C83.9225 45.2782 83.6718 45.1887 83.5058 45.0096C83.3397 44.8306 83.2567 44.5864 83.2567 44.277V42.6344H82.7927V42.0712H83.2567V41.35L83.9714 41.1318V42.0728H84.8065L84.7609 42.6361H83.973V44.2396C83.973 44.4203 84.0153 44.5473 84.0983 44.6206C84.1814 44.6938 84.3197 44.7296 84.5086 44.7296C84.6274 44.7296 84.7528 44.7068 84.8863 44.6629V45.1724C84.7137 45.2424 84.5037 45.2782 84.2579 45.2782Z"
        fill="black" />
    <path
        d="M87.5547 45.2784C87.0077 45.2784 86.5828 45.1433 86.2832 44.8746C85.9821 44.606 85.8323 44.1925 85.8323 43.6358C85.8323 43.1327 85.9609 42.7355 86.2165 42.4441C86.4721 42.1527 86.8611 42.0078 87.3821 42.0078C87.8591 42.0078 88.2172 42.1332 88.4582 42.3822C88.6991 42.6313 88.8196 42.9537 88.8196 43.346V43.9288H86.5209C86.5567 44.2332 86.6674 44.4432 86.853 44.5572C87.0386 44.6728 87.3202 44.7298 87.7012 44.7298C87.8607 44.7298 88.0235 44.7151 88.1912 44.6825C88.3589 44.6516 88.5038 44.6125 88.6275 44.5637V45.0944C88.4858 45.1563 88.3247 45.2019 88.1407 45.2328C87.9568 45.2637 87.7614 45.2784 87.5547 45.2784ZM86.5225 43.4567H88.1847V43.2385C88.1847 43.022 88.1244 42.8527 88.0056 42.7323C87.8868 42.6118 87.6849 42.5499 87.4033 42.5499C87.0679 42.5499 86.8367 42.6232 86.7114 42.7681C86.586 42.9146 86.5225 43.1441 86.5225 43.4567Z"
        fill="black" />
    <path d="M93.2116 45.2115V41.5096H91.8474V40.9463H95.2922V41.5096H93.9345V45.2115H93.2133H93.2116Z" fill="black" />
    <path
        d="M96.3977 45.2119V40.748H97.1189V42.3776C97.2556 42.2669 97.4184 42.1774 97.6089 42.109C97.7994 42.0406 98.0126 42.0065 98.2519 42.0065C98.6492 42.0065 98.9422 42.1009 99.1327 42.2913C99.3231 42.4818 99.4176 42.7765 99.4176 43.1786V45.2119H98.7029V43.2111C98.7029 42.9686 98.6508 42.7976 98.5466 42.7016C98.4424 42.6039 98.2633 42.5567 98.0061 42.5567C97.8466 42.5567 97.6854 42.5909 97.5226 42.6593C97.3598 42.7276 97.2247 42.8172 97.1189 42.9279V45.2135H96.3977V45.2119Z"
        fill="black" />
    <path
        d="M102.278 45.2784C101.731 45.2784 101.306 45.1433 101.006 44.8746C100.705 44.606 100.555 44.1925 100.555 43.6358C100.555 43.1327 100.684 42.7355 100.94 42.4441C101.195 42.1527 101.584 42.0078 102.105 42.0078C102.582 42.0078 102.94 42.1332 103.181 42.3822C103.422 42.6313 103.543 42.9537 103.543 43.346V43.9288H101.244C101.28 44.2332 101.391 44.4432 101.576 44.5572C101.762 44.6728 102.043 44.7298 102.424 44.7298C102.584 44.7298 102.747 44.7151 102.914 44.6825C103.082 44.6516 103.227 44.6125 103.351 44.5637V45.0944C103.209 45.1563 103.048 45.2019 102.864 45.2328C102.68 45.2637 102.485 45.2784 102.278 45.2784ZM101.246 43.4567H102.908V43.2385C102.908 43.022 102.848 42.8527 102.729 42.7323C102.61 42.6118 102.408 42.5499 102.126 42.5499C101.791 42.5499 101.56 42.6232 101.435 42.7681C101.309 42.9146 101.246 43.1441 101.246 43.4567Z"
        fill="black" />
    <path d="M106.828 45.2115V40.9463H109.729V41.5096H107.549V42.8005H109.483V43.3573H107.549V45.2115H106.828Z"
        fill="black" />
    <path
        d="M111.73 45.2787C111.354 45.2787 111.066 45.1745 110.865 44.9678C110.664 44.761 110.564 44.4549 110.564 44.0545V42.0749H111.285V44.0545C111.285 44.2889 111.342 44.4615 111.458 44.5705C111.572 44.6812 111.749 44.7366 111.987 44.7366C112.163 44.7366 112.327 44.704 112.477 44.6373C112.627 44.5705 112.757 44.4826 112.868 44.3719V42.0732H113.582V45.2119H112.926L112.894 44.888C112.752 44.9987 112.585 45.0915 112.391 45.1664C112.197 45.2412 111.976 45.2787 111.728 45.2787H111.73Z"
        fill="black" />
    <path
        d="M116.153 45.2782C115.818 45.2782 115.567 45.1887 115.401 45.0096C115.235 44.8306 115.152 44.5864 115.152 44.277V42.6344H114.688V42.0712H115.152V41.35L115.866 41.1318V42.0728H116.702L116.656 42.6361H115.868V44.2396C115.868 44.4203 115.91 44.5473 115.993 44.6206C116.076 44.6938 116.215 44.7296 116.404 44.7296C116.522 44.7296 116.648 44.7068 116.781 44.6629V45.1724C116.609 45.2424 116.399 45.2782 116.153 45.2782Z"
        fill="black" />
    <path
        d="M118.994 45.2787C118.618 45.2787 118.33 45.1745 118.129 44.9678C117.927 44.761 117.828 44.4549 117.828 44.0545V42.0749H118.549V44.0545C118.549 44.2889 118.606 44.4615 118.722 44.5705C118.836 44.6812 119.013 44.7366 119.251 44.7366C119.427 44.7366 119.591 44.704 119.741 44.6373C119.891 44.5705 120.021 44.4826 120.132 44.3719V42.0732H120.846V45.2119H120.19L120.158 44.888C120.016 44.9987 119.848 45.0915 119.655 45.1664C119.461 45.2412 119.24 45.2787 118.992 45.2787H118.994Z"
        fill="black" />
    <path
        d="M122.22 45.2123V42.0736H122.883L122.922 42.4382C123.072 42.3406 123.251 42.2527 123.457 42.1729C123.664 42.0931 123.871 42.0378 124.073 42.0068V42.5571C123.949 42.5799 123.816 42.6108 123.672 42.6531C123.529 42.6955 123.392 42.741 123.265 42.7915C123.138 42.842 123.029 42.8941 122.941 42.9478V45.2123H122.22Z"
        fill="black" />
    <path
        d="M126.585 45.2784C126.038 45.2784 125.613 45.1433 125.313 44.8746C125.012 44.606 124.863 44.1925 124.863 43.6358C124.863 43.1327 124.991 42.7355 125.247 42.4441C125.502 42.1527 125.891 42.0078 126.412 42.0078C126.889 42.0078 127.248 42.1332 127.488 42.3822C127.729 42.6313 127.85 42.9537 127.85 43.346V43.9288H125.551C125.587 44.2332 125.698 44.4432 125.883 44.5572C126.069 44.6728 126.35 44.7298 126.731 44.7298C126.891 44.7298 127.054 44.7151 127.221 44.6825C127.389 44.6516 127.534 44.6125 127.658 44.5637V45.0944C127.516 45.1563 127.355 45.2019 127.171 45.2328C126.987 45.2637 126.792 45.2784 126.585 45.2784ZM125.551 43.4567H127.213V43.2385C127.213 43.022 127.153 42.8527 127.034 42.7323C126.915 42.6118 126.714 42.5499 126.432 42.5499C126.097 42.5499 125.865 42.6232 125.74 42.7681C125.615 42.9146 125.551 43.1441 125.551 43.4567Z"
        fill="black" />
</svg>