<svg
          width="465"
          height="196"
          viewBox="0 0 465 196"
          fill="none"
          xmlns="http://www.w3.org/2000/svg"
        >
          <g opacity="0.24">
            <path
              d="M171.678 68.0574C165.363 61.2919 171.93 52.5785 178.389 49.2164C208.63 33.4726 226.9 76.8059 206.997 97.64C201.01 103.907 192.725 107.588 184.262 109.458C167.517 113.158 148.975 109.869 135.585 99.1532C122.196 88.4375 114.842 70.0543 118.828 53.3745C121.303 43.0139 127.681 34.0295 134.613 25.9415C143.342 15.7585 153.264 8.71331 166.377 5.32157C192.403 -1.41051 221.681 6.26237 241.059 24.8955C245.661 29.3207 249.806 34.4469 251.846 40.496C254.533 48.4617 253.33 57.1494 252.098 65.4663C252.098 65.4663 253.531 56.5668 253.532 56.5582C260.028 16.2273 337.663 40.4033 314.435 76.6314C313.256 78.4687 311.164 79.457 309.725 81.0123C309.028 81.7662 306.88 83.2264 307.36 84.4001C308.287 84.5333 310.562 83.4718 311.555 83.1236C312.483 82.7981 313.277 82.2763 314.23 81.9772C330.411 76.9032 340.731 88.6696 348.695 100.879C351.394 105.017 354.314 109.127 358.255 112.106C370.149 121.101 387.897 113.037 397.552 104.198C398.182 103.62 398.554 102.808 399.147 102.192C404.749 96.3767 411.804 89.9305 419.849 87.1485C427.339 84.5582 434.429 87.3019 441.262 90.4001C444.665 91.9429 448.012 93.6758 451.6 94.7646C455.233 95.8666 459.505 95.2654 462.76 96.3027C461.914 98.0115 460.271 98.5052 458.41 98.7241C450.454 99.6587 441.038 95.7981 433.487 98.9126C427.09 101.551 422.446 105.972 420.569 112.759C418.717 119.455 419.037 129.508 410.872 131.941C409.593 132.322 407.874 132.033 406.551 132.032C402.561 132.027 397.624 130.684 396.253 135.966C394.946 141.003 398.473 144.648 395.023 149.353C388.441 158.329 373.456 162.195 363.031 159.428C348.188 155.489 346.671 132.433 364.336 132.032C367.979 131.949 375.175 134.441 374.135 145.628"
              stroke="url(#paint0_linear_66_1637)"
              stroke-width="4"
              stroke-miterlimit="10"
              stroke-linecap="round"
              stroke-linejoin="round"
            />
            <path
              d="M171.678 68.0574C165.363 61.2919 171.93 52.5785 178.389 49.2164C208.63 33.4726 226.9 76.8059 206.997 97.64C201.01 103.907 192.725 107.588 184.262 109.458C167.517 113.158 148.975 109.869 135.585 99.1532C122.196 88.4375 114.842 70.0543 118.828 53.3745C121.303 43.0139 127.681 34.0295 134.613 25.9415C143.342 15.7585 153.264 8.71331 166.377 5.32157C192.403 -1.41051 221.681 6.26237 241.059 24.8955C245.661 29.3207 249.806 34.4469 251.846 40.496C254.533 48.4617 253.33 57.1494 252.098 65.4663C252.098 65.4663 253.531 56.5668 253.532 56.5582C260.028 16.2273 337.663 40.4033 314.435 76.6314C313.256 78.4687 311.164 79.457 309.725 81.0123C309.028 81.7662 306.88 83.2264 307.36 84.4001C308.287 84.5333 310.562 83.4718 311.555 83.1236C312.483 82.7981 313.277 82.2763 314.23 81.9772C330.411 76.9032 340.731 88.6696 348.695 100.879C351.394 105.017 354.314 109.127 358.255 112.106C370.149 121.101 387.897 113.037 397.552 104.198C398.182 103.62 398.554 102.808 399.147 102.192C404.749 96.3767 411.804 89.9305 419.849 87.1485C427.339 84.5582 434.429 87.3019 441.262 90.4001C444.665 91.9429 448.012 93.6758 451.6 94.7646C455.233 95.8666 459.505 95.2654 462.76 96.3027C461.914 98.0115 460.271 98.5052 458.41 98.7241C450.454 99.6587 441.038 95.7981 433.487 98.9126C427.09 101.551 422.446 105.972 420.569 112.759C418.717 119.455 419.037 129.508 410.872 131.941C409.593 132.322 407.874 132.033 406.551 132.032C402.561 132.027 397.624 130.684 396.253 135.966C394.946 141.003 398.473 144.648 395.023 149.353C388.441 158.329 373.456 162.195 363.031 159.428C348.188 155.489 346.671 132.433 364.336 132.032C367.979 131.949 375.175 134.441 374.135 145.628"
              stroke="black"
              stroke-opacity="0.2"
              stroke-width="4"
              stroke-miterlimit="10"
              stroke-linecap="round"
              stroke-linejoin="round"
            />
            <path
              d="M236.985 131.307C239.867 132.323 243.172 129.634 243.308 126.581C243.6 120.027 237.033 119.044 231.977 120.231C224.595 121.963 220.64 130.027 222.29 137.258C225.423 150.986 242.792 151.595 252.685 145.338C263.147 138.721 269.983 125.086 265.471 112.987C261.367 101.98 249.63 95.4931 238.471 94.0616C217.701 91.3981 196.063 98.5896 187.487 118.812C178.641 139.673 188.571 168.396 206.554 181.464C220.493 191.593 244.433 194.808 260.083 186.892C272.196 180.764 280.841 169.625 285.865 157.219C282.101 166.514 290.592 175.791 297.58 180.318C307.263 186.591 320.066 187.083 330.749 182.972C342.468 178.462 350.883 168.162 356.035 157.034"
              stroke="url(#paint1_linear_66_1637)"
              stroke-width="4"
              stroke-miterlimit="10"
              stroke-linecap="round"
              stroke-linejoin="round"
            />
            <path
              d="M236.985 131.307C239.867 132.323 243.172 129.634 243.308 126.581C243.6 120.027 237.033 119.044 231.977 120.231C224.595 121.963 220.64 130.027 222.29 137.258C225.423 150.986 242.792 151.595 252.685 145.338C263.147 138.721 269.983 125.086 265.471 112.987C261.367 101.98 249.63 95.4931 238.471 94.0616C217.701 91.3981 196.063 98.5896 187.487 118.812C178.641 139.673 188.571 168.396 206.554 181.464C220.493 191.593 244.433 194.808 260.083 186.892C272.196 180.764 280.841 169.625 285.865 157.219C282.101 166.514 290.592 175.791 297.58 180.318C307.263 186.591 320.066 187.083 330.749 182.972C342.468 178.462 350.883 168.162 356.035 157.034"
              stroke="black"
              stroke-opacity="0.2"
              stroke-width="4"
              stroke-miterlimit="10"
              stroke-linecap="round"
              stroke-linejoin="round"
            />
            <path
              d="M269.999 140.876C270.016 145.895 273.009 150.614 277.119 153.496C281.229 156.378 286.322 157.591 291.338 157.784C304.849 158.304 315.924 151.445 325.395 142.472"
              stroke="url(#paint2_linear_66_1637)"
              stroke-width="4"
              stroke-miterlimit="10"
              stroke-linecap="round"
              stroke-linejoin="round"
            />
            <path
              d="M269.999 140.876C270.016 145.895 273.009 150.614 277.119 153.496C281.229 156.378 286.322 157.591 291.338 157.784C304.849 158.304 315.924 151.445 325.395 142.472"
              stroke="black"
              stroke-opacity="0.2"
              stroke-width="4"
              stroke-miterlimit="10"
              stroke-linecap="round"
              stroke-linejoin="round"
            />
            <path
              d="M119.438 76.3242C108.233 76.3398 96.2714 78.9769 87.3602 86.0945C76.9902 94.3772 69.0284 109.654 71.0456 123.119C72.0448 129.789 75.6491 136.034 80.9248 140.237C92.3088 149.305 120.611 148.967 122.495 130.425C124.012 115.491 103.075 107.302 95.822 121.627"
              stroke="url(#paint3_linear_66_1637)"
              stroke-width="4"
              stroke-miterlimit="10"
              stroke-linecap="round"
              stroke-linejoin="round"
            />
            <path
              d="M119.438 76.3242C108.233 76.3398 96.2714 78.9769 87.3602 86.0945C76.9902 94.3772 69.0284 109.654 71.0456 123.119C72.0448 129.789 75.6491 136.034 80.9248 140.237C92.3088 149.305 120.611 148.967 122.495 130.425C124.012 115.491 103.075 107.302 95.822 121.627"
              stroke="black"
              stroke-opacity="0.2"
              stroke-width="4"
              stroke-miterlimit="10"
              stroke-linecap="round"
              stroke-linejoin="round"
            />
            <path
              d="M70.0629 113.566C59.7008 106.164 44.6634 106.521 34.4477 114.038C24.7468 121.175 21.5591 134.711 10.4602 140.277C7.56767 141.727 4.26471 142.084 1.03964 142.337C-6.07172 142.895 -9.56704 139.817 -15.8583 137.654C-18.1449 136.868 -20.155 135.714 -22.6846 135.637C-25.2742 135.559 -27.5327 135.735 -30 136.45C-34.4369 137.735 -38.9572 138.25 -41.8544 142.429C-40.3552 142.471 -39.2773 141.308 -37.9214 140.947C-28.3053 138.386 -23.7041 145.833 -20.2641 153.478C-15.9152 163.14 -10.5982 170.675 1.09338 171.337C16.4508 172.207 26.2156 160.155 39.2024 154.63C61.2397 145.255 79.0824 168.311 99.8526 171.348C111.34 173.028 123.793 170.379 132.411 162.599"
              stroke="url(#paint4_linear_66_1637)"
              stroke-width="4"
              stroke-miterlimit="10"
              stroke-linecap="round"
              stroke-linejoin="round"
            />
            <path
              d="M70.0629 113.566C59.7008 106.164 44.6634 106.521 34.4477 114.038C24.7468 121.175 21.5591 134.711 10.4602 140.277C7.56767 141.727 4.26471 142.084 1.03964 142.337C-6.07172 142.895 -9.56704 139.817 -15.8583 137.654C-18.1449 136.868 -20.155 135.714 -22.6846 135.637C-25.2742 135.559 -27.5327 135.735 -30 136.45C-34.4369 137.735 -38.9572 138.25 -41.8544 142.429C-40.3552 142.471 -39.2773 141.308 -37.9214 140.947C-28.3053 138.386 -23.7041 145.833 -20.2641 153.478C-15.9152 163.14 -10.5982 170.675 1.09338 171.337C16.4508 172.207 26.2156 160.155 39.2024 154.63C61.2397 145.255 79.0824 168.311 99.8526 171.348C111.34 173.028 123.793 170.379 132.411 162.599"
              stroke="black"
              stroke-opacity="0.2"
              stroke-width="4"
              stroke-miterlimit="10"
              stroke-linecap="round"
              stroke-linejoin="round"
            />
            <path
              d="M43.5669 152.909C62.436 149.296 75.0201 167.591 84.5162 175.792C93.9142 183.909 100.166 190.471 112.589 192.738C119.644 194.025 127.428 193.284 134.24 190.499C142.434 187.15 146.363 181.479 151.87 175.189C150.449 176.812 158.239 182.189 159.571 183.069C173.381 192.203 188.61 183.63 196.926 171.376"
              stroke="url(#paint5_linear_66_1637)"
              stroke-width="4"
              stroke-miterlimit="10"
              stroke-linecap="round"
              stroke-linejoin="round"
            />
            <path
              d="M43.5669 152.909C62.436 149.296 75.0201 167.591 84.5162 175.792C93.9142 183.909 100.166 190.471 112.589 192.738C119.644 194.025 127.428 193.284 134.24 190.499C142.434 187.15 146.363 181.479 151.87 175.189C150.449 176.812 158.239 182.189 159.571 183.069C173.381 192.203 188.61 183.63 196.926 171.376"
              stroke="black"
              stroke-opacity="0.2"
              stroke-width="4"
              stroke-miterlimit="10"
              stroke-linecap="round"
              stroke-linejoin="round"
            />
          </g>
          <defs>
            <linearGradient
              id="paint0_linear_66_1637"
              x1="117.746"
              y1="81.6121"
              x2="462.76"
              y2="81.6121"
              gradientUnits="userSpaceOnUse"
            >
              <stop stop-color="#E6CAA4" />
              <stop offset="1" stop-color="#E9B84E" />
            </linearGradient>
            <linearGradient
              id="paint1_linear_66_1637"
              x1="184.205"
              y1="142.428"
              x2="356.035"
              y2="142.428"
              gradientUnits="userSpaceOnUse"
            >
              <stop stop-color="#E6CAA4" />
              <stop offset="1" stop-color="#E9B84E" />
            </linearGradient>
            <linearGradient
              id="paint2_linear_66_1637"
              x1="269.999"
              y1="149.344"
              x2="325.395"
              y2="149.344"
              gradientUnits="userSpaceOnUse"
            >
              <stop stop-color="#E6CAA4" />
              <stop offset="1" stop-color="#E9B84E" />
            </linearGradient>
            <linearGradient
              id="paint3_linear_66_1637"
              x1="70.7314"
              y1="111.183"
              x2="122.573"
              y2="111.183"
              gradientUnits="userSpaceOnUse"
            >
              <stop stop-color="#E6CAA4" />
              <stop offset="1" stop-color="#E9B84E" />
            </linearGradient>
            <linearGradient
              id="paint4_linear_66_1637"
              x1="-41.8544"
              y1="140.017"
              x2="132.411"
              y2="140.017"
              gradientUnits="userSpaceOnUse"
            >
              <stop stop-color="#E6CAA4" />
              <stop offset="1" stop-color="#E9B84E" />
            </linearGradient>
            <linearGradient
              id="paint5_linear_66_1637"
              x1="43.5669"
              y1="172.896"
              x2="196.926"
              y2="172.896"
              gradientUnits="userSpaceOnUse"
            >
              <stop stop-color="#E6CAA4" />
              <stop offset="1" stop-color="#E9B84E" />
            </linearGradient>
          </defs>
        </svg>